<?xml version="1.0" standalone="no"?>
<!DOCTYPE svg PUBLIC "-//W3C//DTD SVG 20010904//EN"
 "http://www.w3.org/TR/2001/REC-SVG-20010904/DTD/svg10.dtd">
<svg version="1.0" xmlns="http://www.w3.org/2000/svg"
 width="1920.000000pt" height="1080.000000pt" viewBox="0 0 1920.000000 1080.000000"
 preserveAspectRatio="xMidYMid meet">
<metadata>
Created by potrace 1.16, written by Peter Selinger 2001-2019
</metadata>
<g transform="translate(0.000000,1080.000000) scale(0.100000,-0.100000)"
fill="#000000" stroke="none">
<path d="M18617 10793 c12 -2 24 -11 27 -19 7 -17 -10 -19 -17 -1 -4 9 -8 9
-15 -2 -5 -7 -15 -10 -21 -6 -7 4 -18 1 -26 -5 -11 -9 -19 -9 -28 -1 -10 8
-17 7 -26 -2 -6 -6 -24 -12 -39 -13 -15 -1 -45 -5 -67 -8 -105 -14 -182 -26
-200 -30 -33 -7 -118 -18 -171 -21 -46 -3 -99 -11 -99 -15 0 -2 -28 -7 -80
-13 -22 -3 -51 -8 -65 -11 -14 -3 -45 -8 -70 -11 -64 -7 -89 -11 -154 -25 -32
-6 -67 -10 -77 -7 -10 3 -21 2 -24 -3 -2 -4 -30 -11 -62 -15 -106 -13 -118
-15 -193 -26 -41 -6 -97 -13 -125 -15 -27 -2 -75 -8 -105 -14 -30 -5 -98 -17
-150 -24 -52 -8 -131 -21 -175 -29 -44 -8 -87 -15 -95 -15 -15 0 -467 -67
-528 -77 -19 -4 -30 -10 -26 -17 4 -6 -2 -6 -15 1 -12 7 -26 9 -30 6 -8 -4
-213 -34 -240 -35 -3 0 0 -4 8 -9 19 -12 -61 -25 -147 -25 -34 0 -57 -3 -51
-7 6 -4 -13 -10 -42 -14 -30 -3 -80 -11 -111 -17 -32 -6 -69 -8 -82 -6 -14 3
-23 2 -21 -2 4 -6 -139 -30 -305 -50 -79 -10 -817 -115 -950 -135 -52 -8 -131
-19 -175 -25 -44 -6 -163 -22 -264 -35 -199 -27 -265 -31 -161 -9 l65 13 -55
-5 c-30 -3 -102 -12 -160 -20 -90 -12 -205 -26 -385 -49 -63 -8 -216 -24 -262
-28 -24 -2 -46 -6 -49 -10 -4 -3 -14 -2 -24 3 -11 6 -30 6 -51 -1 -19 -5 -88
-12 -154 -15 -66 -2 -151 -6 -190 -9 -92 -5 -148 10 -170 48 -9 15 -28 33 -41
39 -13 6 -24 15 -24 21 0 5 -11 6 -24 3 -30 -7 -56 2 -56 19 0 8 -17 16 -39
20 -22 3 -47 13 -58 20 -10 8 -28 15 -41 15 -13 0 -40 11 -60 25 -20 14 -42
25 -49 25 -7 0 -13 4 -13 9 0 16 -30 21 -56 9 -22 -10 -28 -9 -38 4 -14 19
-46 26 -65 14 -8 -5 -16 -4 -21 4 -5 7 -17 10 -29 7 -27 -7 -51 16 -51 49 0
25 -18 32 -37 13 -8 -8 -17 -8 -31 0 -29 15 -52 14 -52 -4 0 -8 -4 -15 -10
-15 -5 0 -10 3 -10 8 0 30 -213 53 -229 24 -6 -11 -16 -13 -37 -8 -16 4 -48
10 -71 13 -24 3 -43 9 -43 14 0 5 -18 9 -40 9 -29 0 -40 -4 -40 -15 0 -21 -13
-19 -28 6 -9 15 -18 18 -30 13 -16 -8 -315 -24 -476 -25 -56 -1 -84 -6 -94
-16 -11 -11 -38 -14 -119 -11 -104 3 -104 3 -98 -20 5 -22 5 -23 -86 -20 -76
2 -93 -1 -104 -15 -17 -23 -65 -23 -65 1 -1 15 -2 15 -13 1 -7 -8 -21 -15 -32
-16 -52 -2 -170 -25 -173 -33 -5 -13 -42 -13 -42 0 0 6 -9 10 -20 10 -11 0
-20 -5 -20 -11 0 -7 -11 -9 -28 -6 -30 6 -112 -17 -123 -35 -3 -5 -26 -11 -50
-11 -29 -1 -49 -8 -57 -19 -14 -19 -38 -24 -44 -9 -5 15 -98 -10 -98 -26 0 -7
-7 -13 -15 -13 -8 0 -15 5 -15 10 0 19 -25 10 -44 -15 -15 -20 -22 -23 -38
-14 -10 6 -33 7 -49 4 -28 -6 -29 -8 -12 -21 16 -12 15 -13 -15 -14 -18 0 -47
-8 -65 -17 -49 -25 -151 -44 -244 -44 -18 0 -33 -4 -33 -8 0 -4 -102 -5 -227
-3 -210 4 -348 9 -348 12 0 0 -87 3 -192 5 -106 3 -211 9 -233 14 -25 5 -40 5
-40 -1 0 -5 -4 -7 -9 -3 -5 3 -47 7 -93 10 -46 2 -171 9 -278 15 -107 5 -285
17 -395 25 -110 8 -226 17 -257 19 -32 2 -58 0 -58 -4 0 -4 57 -12 128 -16 70
-5 109 -10 87 -12 -34 -4 -155 4 -400 24 -33 2 -298 22 -590 44 -291 22 -674
52 -850 66 -176 13 -385 29 -465 35 -80 5 -197 14 -260 19 -63 5 -131 10 -150
11 -19 1 -27 3 -17 6 39 10 13 23 -45 21 -62 -1 -63 -1 -18 -8 l45 -7 -60 -1
c-40 -1 -55 1 -45 8 8 5 12 11 9 14 -2 3 -58 6 -124 7 -106 3 -131 0 -220 -26
-55 -15 -115 -28 -132 -29 -18 -1 -33 -4 -33 -8 0 -5 -21 -8 -47 -8 -27 0 -64
-4 -83 -8 -19 -5 -82 -5 -140 -1 -229 16 -674 32 -760 28 -64 -3 -107 -3 -375
5 -110 3 -201 9 -202 13 -2 4 -40 7 -85 5 -106 -5 -103 -5 -170 -2 -32 2 -64
-2 -71 -8 -8 -7 -44 -8 -112 -2 -106 10 -192 5 -237 -12 -22 -8 -31 -7 -43 6
-18 18 -35 21 -35 7 0 -6 -15 -5 -36 1 -25 6 -39 6 -43 -1 -4 -5 -22 -10 -41
-9 -19 0 -51 -3 -70 -7 -108 -22 -191 -32 -239 -29 -46 3 -54 0 -58 -17 -4
-14 -14 -19 -39 -19 -33 0 -46 14 -21 23 6 3 -39 5 -100 4 l-113 -1 0 -547 0
-547 83 -6 c45 -3 179 -10 297 -16 118 -6 231 -15 250 -21 19 -5 44 -8 55 -7
12 2 19 -2 18 -9 -2 -8 8 -13 26 -13 17 0 33 -4 36 -10 3 -5 23 -11 43 -11
l37 -2 -35 -6 c-39 -7 -21 -21 21 -16 13 1 16 0 7 -2 -10 -2 -18 -9 -18 -14 0
-6 10 -8 23 -4 16 4 14 1 -8 -11 -16 -10 -50 -34 -75 -55 -28 -23 -60 -39 -86
-44 -42 -6 -68 -18 -116 -49 -16 -10 -28 -16 -28 -13 0 2 19 17 41 32 48 31
44 39 -28 67 -59 22 -61 22 -59 1 2 -29 -33 -28 -44 1 -11 31 -31 33 -47 7
-17 -26 -67 -14 -71 17 -4 23 -8 25 -60 22 -18 -1 -45 6 -60 16 -30 20 -72 28
-72 14 0 -5 5 -12 10 -15 6 -3 10 -11 10 -18 0 -8 -3 -8 -12 1 -16 16 -29 15
-27 0 3 -28 -2 -38 -29 -52 -15 -8 -39 -26 -55 -41 -25 -24 -27 -32 -27 -104
0 -50 5 -89 15 -107 11 -22 12 -30 2 -36 -9 -6 -8 -8 3 -8 13 0 13 -1 0 -10
-12 -8 -13 -12 -2 -19 8 -4 14 -11 14 -14 0 -41 2 -42 183 -42 148 0 176 -2
187 -16 18 -23 96 -51 120 -43 14 4 18 2 14 -5 -4 -6 -1 -11 7 -11 8 0 20 -7
27 -15 9 -10 9 -15 1 -15 -6 0 -11 5 -11 10 0 6 -9 10 -21 10 -31 0 -13 -18
26 -26 33 -6 51 -19 55 -39 6 -29 21 -56 29 -51 4 3 6 -6 3 -19 -3 -16 0 -25
8 -25 12 0 9 -24 -6 -64 -4 -11 -1 -16 10 -16 9 0 16 -8 16 -17 0 -9 10 -27
22 -41 20 -21 22 -32 20 -105 -3 -86 -9 -108 -23 -86 -7 12 -9 11 -9 -1 0 -9
-6 -6 -17 9 -13 19 -14 28 -4 43 21 34 -12 108 -49 108 -18 0 -30 -36 -30 -91
0 -21 -5 -28 -22 -31 -27 -4 -36 -28 -11 -28 11 0 23 4 28 8 6 5 21 6 35 3
l24 -7 -23 -23 c-14 -14 -21 -30 -18 -42 3 -12 0 -19 -9 -19 -8 0 -14 -4 -14
-10 0 -5 4 -10 9 -10 5 0 20 -14 32 -31 l22 -31 -23 7 c-15 5 -20 4 -16 -4 5
-7 1 -9 -8 -5 -26 10 -18 -12 10 -27 31 -16 110 -101 128 -138 8 -14 21 -59
30 -98 19 -86 12 -136 -29 -189 -22 -29 -32 -34 -52 -29 -24 6 -24 5 -9 -11
11 -10 27 -15 46 -12 17 3 30 0 30 -5 0 -6 5 -6 12 0 22 16 78 15 84 -2 3 -8
10 -12 15 -9 5 3 7 9 4 14 -3 5 56 10 131 12 75 2 137 1 139 -2 2 -3 38 -6 79
-5 48 0 77 -4 80 -11 3 -8 -17 -12 -62 -13 -37 -1 -90 -4 -119 -6 -42 -3 -53
-1 -56 13 -4 15 -5 15 -6 0 -1 -17 -23 -18 -308 -19 -170 -1 -355 -2 -413 -4
-112 -3 -127 0 -111 19 17 20 1 56 -24 56 -13 0 -25 6 -28 13 -2 6 -3 4 -2 -5
2 -13 -4 -18 -19 -18 -12 0 -45 -16 -75 -35 -29 -19 -57 -33 -62 -29 -5 3 -9
-17 -9 -43 l0 -49 599 4 c329 3 623 2 653 -2 50 -6 55 -10 66 -40 7 -18 12
-42 12 -54 0 -13 6 -22 15 -22 9 0 15 9 15 21 0 18 4 20 28 14 15 -4 43 -8 63
-9 30 -1 35 -4 31 -20 -3 -10 1 -22 8 -26 7 -4 9 -13 5 -19 -5 -9 -10 -9 -21
0 -11 9 -14 7 -14 -11 0 -13 8 -24 20 -27 14 -4 20 -14 20 -34 0 -22 5 -29 20
-29 11 0 20 -4 20 -10 0 -5 -9 -10 -20 -10 -18 0 -18 -1 -2 -30 9 -16 18 -26
20 -21 5 14 51 -12 56 -31 2 -10 11 -18 20 -18 22 0 20 -27 -1 -33 -15 -4 -14
-5 2 -6 42 -2 66 -61 25 -61 -11 0 -20 -4 -20 -9 0 -11 47 -24 60 -16 4 3 11
-12 15 -34 l6 -39 27 25 27 25 5 -24 c3 -12 14 -24 24 -26 9 -2 30 -17 45 -33
33 -34 39 -35 58 -11 14 16 14 16 9 0 -3 -12 0 -18 9 -18 17 0 19 -13 6 -57
-8 -29 -6 -36 19 -63 15 -16 35 -30 44 -30 23 0 20 -37 -4 -43 -11 -3 -20 -13
-20 -22 0 -10 5 -15 13 -12 8 3 18 -7 26 -24 10 -24 16 -27 27 -18 12 9 14 5
14 -25 0 -20 -4 -36 -10 -36 -5 0 -10 7 -10 15 0 9 -9 15 -24 15 -30 0 -43
-17 -26 -33 10 -9 14 -9 17 1 6 14 23 16 23 2 0 -6 -20 -25 -45 -42 -25 -18
-43 -38 -41 -45 3 -7 1 -15 -4 -18 -15 -9 -12 -25 5 -25 9 0 15 7 13 17 -2 10
4 19 14 21 13 3 16 -1 11 -14 -4 -10 0 -20 11 -26 17 -9 17 -11 0 -29 -10 -11
-25 -17 -35 -14 -11 4 -27 -4 -43 -20 -31 -31 -32 -35 -8 -36 10 0 12 -3 5 -6
-15 -6 -17 -43 -3 -43 6 0 10 -7 10 -16 0 -12 -7 -15 -29 -12 -21 3 -28 1 -24
-9 3 -7 16 -13 28 -13 13 0 30 -3 39 -6 11 -4 16 0 16 12 0 16 2 17 10 4 20
-31 11 -40 -42 -40 -62 0 -56 -12 10 -20 33 -3 48 -10 50 -22 2 -12 -6 -19
-32 -24 -26 -4 -36 -11 -36 -25 0 -11 -6 -19 -14 -19 -7 0 -16 -13 -19 -30 -5
-21 -12 -30 -27 -30 -11 0 -20 -5 -20 -11 0 -6 -10 -10 -22 -9 -39 3 -48 1
-48 -15 0 -8 -7 -15 -15 -15 -10 0 -15 11 -15 35 0 19 -5 35 -11 35 -5 0 -15
14 -20 30 -10 27 -29 42 -29 22 0 -5 -10 -8 -21 -8 -12 1 -24 -5 -26 -11 -3
-7 2 -13 11 -13 25 0 19 -13 -19 -39 -47 -32 -45 -67 2 -38 27 17 21 -14 -7
-39 -32 -29 -41 -78 -18 -104 11 -12 10 -12 -6 0 -16 13 -20 12 -32 -5 -8 -10
-14 -22 -14 -27 0 -4 -7 -8 -15 -8 -8 0 -15 -9 -15 -20 0 -16 7 -20 35 -20 19
0 35 -4 35 -10 0 -15 -67 -12 -74 2 -5 10 -7 11 -12 1 -3 -7 -16 -13 -28 -13
-28 0 -53 -19 -58 -45 -4 -20 -10 -22 -40 -10 -13 5 -18 2 -18 -11 0 -15 -3
-15 -24 5 -18 17 -33 22 -62 19 -46 -4 -60 -33 -20 -40 14 -3 23 -1 20 3 -3 5
6 9 20 9 32 0 33 -7 1 -36 -16 -15 -25 -34 -25 -53 0 -28 -1 -29 -31 -21 -33
10 -149 -15 -149 -31 0 -5 -7 -6 -15 -3 -8 4 -15 14 -15 24 0 12 -12 22 -36
30 -32 11 -34 13 -17 25 10 7 14 17 10 21 -4 5 -12 3 -16 -4 -8 -13 -104 -24
-128 -15 -7 3 -13 11 -13 19 0 19 -27 18 -38 -2 -7 -12 -16 -14 -42 -7 -37 10
-53 33 -22 33 11 0 22 9 25 20 4 17 1 19 -20 14 -24 -6 -24 -5 -13 16 10 19
10 24 -4 32 -20 11 -21 28 -1 28 8 0 15 5 15 10 0 6 -4 10 -10 10 -5 0 -10 16
-10 36 0 19 -5 44 -10 55 -11 20 -30 26 -30 8 0 -6 -7 -17 -15 -25 -13 -14
-15 -13 -15 5 0 19 -6 20 -65 19 -53 -2 -66 -6 -71 -20 -3 -10 -9 -18 -13 -18
-4 0 -14 -18 -21 -40 -7 -22 -17 -40 -23 -40 -5 0 -6 -11 -3 -24 3 -14 1 -28
-5 -31 -18 -12 -149 6 -164 22 -9 8 -31 19 -50 24 -19 6 -35 14 -35 19 0 6 -7
10 -15 10 -8 0 -15 -5 -15 -10 0 -7 -7 -7 -20 0 -12 6 -29 8 -40 5 -10 -3 -21
-1 -25 5 -3 5 -15 10 -26 10 -21 0 -26 16 -6 23 6 3 8 6 2 6 -5 0 -17 -4 -25
-9 -13 -9 -13 -11 0 -20 12 -7 12 -12 2 -22 -18 -18 -15 -46 6 -51 16 -4 16
-5 0 -6 -17 -1 -18 -137 -18 -2616 l0 -2615 696 0 697 0 -7 868 c-7 814 8
2989 20 3002 3 3 56 8 117 11 80 5 114 4 120 -5 4 -6 7 -141 7 -301 -1 -710 3
-1107 11 -1030 4 44 8 226 8 404 0 178 2 326 5 329 3 3 99 13 213 23 115 10
415 37 668 59 253 23 487 43 520 46 33 2 98 9 145 14 47 5 153 15 235 22 83 7
138 14 124 16 -14 2 -154 -8 -310 -22 -156 -14 -367 -33 -469 -41 -102 -9
-201 -18 -220 -20 -19 -2 -98 -9 -175 -15 -77 -6 -207 -17 -290 -25 -193 -18
-250 -23 -358 -31 l-87 -7 2 299 3 299 40 3 c22 2 45 8 51 13 6 5 14 6 17 2 4
-3 8 -117 9 -252 l3 -246 2 227 3 227 43 5 c23 3 139 12 257 21 118 9 296 22
395 30 99 8 277 21 395 30 118 9 325 25 460 36 135 10 263 20 285 21 l40 3 5
-215 6 -215 2 224 2 223 -82 -6 c-46 -3 -270 -20 -498 -37 -228 -17 -448 -32
-487 -34 -40 -2 -87 -6 -105 -9 -72 -11 -201 -15 -192 -7 5 5 51 11 101 13 51
2 93 6 93 10 0 4 24 7 53 7 59 0 222 12 567 42 129 11 262 22 295 25 33 2 78
6 100 9 22 3 76 8 120 11 44 2 87 7 96 10 25 7 29 -33 29 -322 l0 -263 -23 -4
-22 -4 23 -2 22 -1 1 -402 c1 -222 3 -394 5 -383 3 11 5 322 7 692 1 436 6
676 12 682 6 6 57 12 115 15 120 6 257 15 315 22 22 2 74 6 115 9 41 3 122 10
180 15 58 5 197 16 310 25 113 9 257 20 320 26 63 5 178 14 255 19 77 5 158
12 180 15 90 13 104 13 114 1 7 -8 11 -109 11 -282 -1 -382 0 -478 6 -483 2
-2 4 68 4 156 l0 161 47 6 c27 3 246 22 488 41 768 62 932 75 1290 105 193 17
354 30 358 30 3 0 8 -87 10 -192 1 -106 4 -13 5 207 1 220 5 410 8 422 5 16
13 21 40 21 19 0 66 3 104 7 55 6 70 11 71 24 0 10 2 11 6 4 6 -17 90 -17 96
0 4 9 7 9 14 0 9 -12 28 -12 243 6 167 15 420 31 552 36 59 2 122 6 140 9 122
21 307 23 319 5 5 -8 9 -124 8 -257 0 -134 2 -247 5 -250 3 -3 6 103 6 235 0
136 4 253 10 269 10 28 13 29 78 31 37 1 83 4 102 7 93 14 227 26 345 30 72 3
173 10 225 15 156 17 419 34 508 32 45 -1 82 2 82 6 0 10 63 9 79 -2 9 -5 11
-26 6 -74 -9 -93 -11 -411 -3 -411 4 0 6 -10 6 -22 -1 -13 -1 -153 0 -312 3
-476 19 -318 27 262 4 294 10 557 14 585 l6 52 113 7 c118 6 169 15 158 25 -6
7 -57 26 -109 43 -16 5 -110 12 -209 15 -206 6 -500 -11 -1903 -110 -192 -13
-420 -29 -505 -35 -203 -13 -716 -49 -805 -55 -38 -3 -164 -12 -280 -20 -115
-8 -257 -19 -315 -24 -58 -6 -143 -13 -190 -16 -130 -10 -154 -16 -159 -45 -1
-14 -8 -28 -15 -32 -6 -5 -1 -8 13 -8 24 0 24 0 5 -15 -30 -23 -53 -18 -60 12
-4 16 -17 36 -28 47 -20 17 -34 18 -213 12 -105 -3 -280 -13 -390 -21 -109 -8
-304 -21 -433 -30 -129 -8 -298 -20 -375 -25 -77 -6 -192 -15 -255 -19 -63 -5
-119 -5 -124 -1 -9 9 14 11 359 35 121 9 333 25 470 37 329 26 372 29 424 28
26 0 54 7 70 17 14 10 44 18 66 19 22 1 76 4 120 7 53 5 75 3 65 -3 -12 -8
-10 -10 8 -10 13 0 21 4 18 9 -14 22 101 30 122 9 9 -9 12 -8 12 5 0 11 8 16
27 16 49 -1 198 9 213 14 19 7 490 40 844 60 76 4 42 33 -64 53 -51 10 -99 28
-94 35 3 5 -15 9 -40 9 -25 0 -46 4 -46 9 0 6 16 7 35 4 21 -3 41 -1 49 7 18
14 40 4 32 -16 -3 -8 -1 -14 4 -14 6 0 10 5 10 11 0 7 11 9 28 6 16 -3 33 0
44 10 13 12 20 12 36 2 18 -11 24 -10 41 5 16 15 24 16 34 7 11 -9 17 -8 26 3
10 11 8 15 -6 20 -10 3 14 3 52 1 39 -3 77 -5 85 -4 8 0 29 0 47 0 23 0 30 4
26 15 -4 11 5 14 41 14 34 0 52 6 68 22 16 16 32 21 57 19 20 -1 54 5 75 14
34 15 40 15 47 2 7 -12 17 -13 56 -5 27 6 53 14 59 19 6 5 19 2 32 -7 20 -14
24 -13 57 13 19 15 35 32 35 38 0 5 12 20 27 32 14 13 23 23 20 23 -4 0 1 9
10 20 12 13 21 16 29 10 8 -7 16 -5 24 5 8 10 25 15 44 13 25 -2 30 1 28 15
-2 10 3 25 10 34 10 13 8 19 -15 37 -15 12 -27 27 -27 33 0 6 -10 15 -22 18
-51 15 -108 46 -108 59 0 33 -63 39 -299 27 -124 -6 -370 -18 -546 -26 -176
-8 -392 -19 -480 -25 -88 -5 -241 -12 -340 -15 -99 -3 -254 -10 -345 -15 -91
-5 -219 -12 -285 -15 -66 -3 -293 -14 -505 -25 -815 -41 -908 -43 -925 -27
-10 11 -11 17 -3 19 7 3 13 65 17 193 l6 190 70 0 70 0 6 -60 6 -60 1 62 c1
34 5 64 10 66 4 3 86 8 182 11 230 9 553 24 765 35 94 6 235 12 315 16 80 3
233 10 340 15 107 5 299 14 425 20 127 6 255 13 286 16 54 5 57 7 63 36 12 59
20 17 26 -140 l7 -157 1 127 c1 70 6 129 11 132 7 5 226 16 746 40 61 3 178 8
260 11 83 3 193 7 245 10 222 11 779 27 824 23 l49 -3 3 -117 c1 -65 1 -118 0
-119 0 -1 -48 -7 -106 -14 l-105 -14 105 2 105 2 5 -140 c3 -77 8 -135 10
-130 2 6 4 128 5 272 0 144 3 264 6 268 4 3 22 2 40 -3 26 -6 34 -14 35 -33 1
-13 -3 -30 -10 -38 -11 -14 -13 -27 -16 -116 -1 -25 -6 -45 -10 -45 -5 0 -3
-12 5 -26 13 -26 10 -104 -5 -114 -5 -3 -11 -30 -15 -60 -6 -55 -6 -55 29 -79
48 -31 68 -32 76 -1 5 22 7 19 13 -17 8 -45 20 -55 31 -26 6 14 9 15 15 4 5
-7 10 -12 12 -10 10 7 50 -11 44 -20 -3 -7 0 -8 9 -5 9 3 24 3 34 -2 9 -4 26
-8 37 -10 77 -8 105 -13 114 -18 6 -4 13 5 17 19 7 27 24 34 24 10 0 -8 0 -18
1 -22 0 -13 49 -34 60 -27 6 4 15 0 20 -7 6 -11 11 -11 21 -1 14 14 32 16 23
2 -3 -5 -2 -10 4 -10 5 0 11 5 13 12 3 7 11 4 24 -9 29 -31 82 -20 100 21 7
17 13 27 14 21 0 -5 5 -3 10 5 8 12 10 12 11 -5 0 -15 2 -16 7 -5 4 10 10 1
17 -25 10 -35 16 -40 45 -43 20 -2 29 -7 22 -11 -7 -4 1 -8 20 -9 76 -3 128
-14 128 -28 0 -18 19 -18 26 -1 7 20 86 9 105 -16 l17 -20 6 21 c9 26 12 26
176 7 69 -8 164 -17 212 -20 47 -3 99 -10 115 -16 45 -17 103 -79 103 -111 0
-24 -4 -28 -30 -28 -35 0 -40 -15 -7 -23 12 -2 121 -25 242 -51 370 -79 355
-75 366 -103 5 -14 9 -210 9 -454 0 -409 -1 -429 -18 -429 -10 0 -22 3 -26 7
-3 4 -14 8 -24 9 -9 1 -35 7 -57 13 -22 6 -58 15 -80 20 -38 9 -82 21 -404
106 -74 19 -137 38 -140 43 -3 4 -21 8 -38 8 l-33 2 1 -112 c0 -61 4 -144 8
-183 4 -40 3 -73 -2 -73 -8 0 -9 -609 0 -647 4 -20 12 -23 52 -24 47 -1 44 -3
-20 -13 -33 -6 -35 -9 -31 -36 5 -34 4 -34 104 -20 40 5 100 12 133 14 33 3
92 8 130 12 39 4 68 4 65 1 -3 -2 -86 -14 -185 -26 -271 -32 -245 -24 -245
-77 l0 -45 53 7 c28 4 54 10 57 13 3 3 35 7 72 8 38 1 138 12 224 23 86 12
166 20 178 18 18 -3 -342 -53 -527 -74 -31 -3 -59 -9 -61 -13 -2 -3 -1 -21 2
-40 l5 -33 46 5 c25 3 170 22 321 42 151 19 281 34 290 32 8 -2 -12 -7 -45
-11 -33 -4 -136 -18 -230 -31 -93 -13 -210 -28 -260 -35 -129 -16 -127 -15
-123 -63 2 -25 9 -42 18 -45 13 -3 13 -2 0 7 -12 8 -6 11 25 12 22 1 54 4 70
6 17 2 42 4 57 5 15 0 25 4 23 9 -3 4 5 10 17 12 13 2 4 5 -20 6 -24 0 -41 5
-37 10 3 5 -3 12 -12 14 -22 5 17 -1 55 -9 19 -4 23 -3 13 4 -10 7 -10 11 -1
17 6 4 17 2 23 -4 6 -6 20 -11 32 -11 11 0 31 -7 44 -16 27 -19 40 -18 336 22
105 14 198 30 207 35 10 5 25 9 33 9 27 0 16 20 -12 21 l-28 1 30 7 c28 6 29
7 11 18 -34 19 98 27 159 9 28 -8 41 -15 30 -15 -16 -1 -17 -3 -6 -10 8 -5 51
-8 95 -6 103 5 90 1 -56 -21 -124 -17 -154 -34 -65 -34 l52 -1 -27 -17 c-25
-15 -37 -32 -23 -32 3 0 71 7 152 15 80 9 148 13 151 10 3 -3 -2 -5 -10 -5
-30 0 -284 -41 -313 -50 -27 -9 -25 -9 13 -5 28 4 41 2 37 -5 -3 -5 -1 -10 4
-10 6 0 11 5 11 10 0 15 33 12 56 -5 12 -8 24 -11 28 -8 3 3 6 1 6 -5 0 -6
-15 -14 -32 -18 l-33 -8 45 -6 c29 -5 124 3 260 21 118 16 224 28 235 28 25
-1 -33 -12 -215 -38 -80 -12 -170 -26 -200 -31 -30 -5 -79 -12 -107 -15 -29
-4 -53 -10 -53 -14 0 -4 30 -4 67 1 70 10 118 4 108 -12 -3 -6 3 -10 15 -10
12 0 18 4 15 10 -9 15 44 24 72 11 25 -11 25 -12 7 -26 -18 -13 -16 -14 19
-15 21 0 36 4 33 9 -9 14 55 23 70 10 11 -9 14 -8 14 5 0 18 30 22 47 5 7 -7
20 -8 34 -3 13 4 32 7 42 5 10 -1 25 3 32 9 8 7 22 10 30 6 8 -3 66 1 128 10
176 23 223 26 97 4 -107 -18 -503 -80 -615 -96 -29 -5 -41 -9 -28 -12 12 -2
104 9 205 23 101 15 216 31 256 37 53 7 77 7 85 -1 18 -18 40 -14 32 7 -5 14
-4 15 6 5 7 -7 28 -13 46 -13 40 0 45 -20 6 -21 -23 -1 -20 -3 12 -10 22 -4
51 -6 65 -4 14 3 54 7 90 10 35 3 87 7 115 10 27 3 46 3 40 0 -9 -4 -136 -25
-440 -72 -60 -9 -114 -21 -120 -26 -6 -6 3 -7 25 -3 95 15 202 26 212 20 6 -4
1 -12 -13 -20 -13 -7 -22 -13 -19 -14 3 0 30 -9 60 -20 60 -22 73 -25 51 -11
-9 6 10 9 55 10 39 0 119 7 179 16 60 8 116 15 124 14 16 -1 -263 -53 -351
-65 -29 -4 -45 -11 -41 -17 4 -7 -1 -8 -13 -3 -23 9 -408 -46 -391 -56 13 -8
77 -2 151 14 27 6 83 12 125 13 42 1 92 5 111 8 20 4 44 2 56 -4 16 -8 27 -8
40 0 11 6 14 11 6 11 -7 0 -10 5 -7 10 3 6 18 10 33 9 24 0 25 -1 7 -9 l-20
-9 20 0 c11 -1 27 -6 35 -11 11 -8 8 -9 -12 -4 -19 4 -28 2 -28 -6 0 -8 -15
-11 -45 -8 -25 2 -45 0 -45 -4 0 -5 15 -8 34 -8 18 0 49 -2 67 -5 27 -4 30 -3
14 4 -15 8 -7 9 32 7 35 -3 51 0 46 7 -4 6 2 8 18 4 13 -3 88 3 167 14 257 37
160 14 -179 -42 -181 -30 -320 -56 -308 -57 12 -2 65 3 118 12 53 9 122 17
153 19 32 1 58 6 58 11 0 4 11 5 24 2 13 -3 39 -1 57 6 25 9 34 9 37 0 2 -8
22 -10 60 -7 l57 4 -65 -13 c-36 -8 -57 -14 -48 -15 50 -3 119 -24 107 -31
-23 -15 143 7 509 66 57 9 105 14 107 12 4 -4 -508 -93 -685 -119 -30 -5 -98
-17 -150 -29 -116 -24 -49 -18 190 19 69 11 96 6 39 -6 -32 -8 -31 -8 21 -13
37 -3 54 -9 52 -17 -1 -7 3 -13 9 -13 5 0 7 -4 4 -10 -3 -5 1 -10 9 -10 9 0
16 4 16 9 0 13 54 21 86 12 17 -4 55 -2 94 7 36 7 90 15 120 17 30 2 86 10
123 19 38 9 84 16 103 16 19 0 34 5 34 11 0 7 10 9 28 5 17 -4 22 -3 14 2 -20
13 40 23 92 16 30 -4 37 -3 26 5 -11 7 0 10 40 8 30 -1 82 2 115 5 52 6 54 6
20 -3 -39 -9 -173 -34 -245 -45 -109 -16 -573 -95 -735 -124 l-40 -7 40 -1
c22 -1 60 3 85 8 25 6 70 12 100 15 30 3 75 10 100 16 29 6 57 6 77 0 31 -9
58 2 31 12 -7 2 -1 3 14 1 15 -2 43 3 62 11 42 18 49 19 40 4 -3 -6 8 -4 24 5
34 18 56 21 48 7 -6 -9 16 -21 40 -21 11 0 12 4 5 18 -9 17 -2 20 83 35 108
20 106 20 106 7 0 -5 -6 -7 -14 -4 -8 3 -17 1 -21 -5 -3 -6 1 -11 11 -11 9 0
23 -8 31 -17 11 -14 16 -15 20 -5 4 10 9 7 20 -8 15 -21 21 -22 127 -17 l111
5 -85 -18 c-47 -11 -98 -21 -113 -24 -16 -2 -32 -8 -35 -11 -4 -4 13 -4 37 0
25 4 66 9 93 10 39 2 48 0 44 -11 -3 -8 3 -22 14 -31 10 -9 17 -20 14 -25 -3
-4 0 -8 5 -8 6 0 11 4 11 9 0 12 48 23 71 16 11 -4 16 -11 13 -17 -5 -7 5 -9
31 -4 46 9 204 33 265 40 88 11 -55 -20 -252 -55 -103 -18 -186 -35 -183 -37
3 -4 74 7 245 35 45 8 94 4 98 -8 2 -5 13 -9 25 -9 18 0 19 2 7 10 -26 16 -4
21 26 5 16 -8 37 -15 47 -15 25 0 129 -30 143 -41 6 -5 26 -4 45 0 19 5 63 12
99 14 45 4 16 -4 -95 -27 -120 -24 -152 -33 -127 -37 17 -3 32 -1 32 4 0 5 14
6 31 2 22 -5 29 -4 25 4 -5 7 -1 9 8 5 9 -3 14 -10 11 -14 -3 -5 5 -6 17 -3
19 4 20 3 8 -6 -8 -6 -11 -11 -6 -11 5 0 3 -6 -3 -14 -18 -22 27 -49 64 -40
21 5 26 4 20 -6 -5 -9 -2 -10 14 -5 12 4 43 7 68 7 34 0 42 2 32 9 -10 8 -9 9
7 4 12 -3 63 2 113 10 51 9 98 14 104 12 7 -2 -19 -9 -58 -15 -192 -30 -568
-109 -528 -111 12 -1 30 -4 40 -7 13 -4 14 -3 5 4 -21 14 71 23 109 10 22 -8
50 -8 98 0 80 13 139 13 147 1 3 -5 17 -9 32 -9 26 -1 62 -20 62 -34 0 -3 -9
-6 -21 -6 -13 0 -18 4 -13 12 5 8 2 9 -10 5 -10 -4 -23 -7 -29 -8 -7 0 1 -5
17 -9 38 -12 129 -1 101 12 -15 6 -13 7 8 3 15 -3 72 2 128 11 55 8 102 14
105 12 2 -3 -39 -12 -91 -22 -52 -10 -95 -19 -95 -21 0 -2 38 -2 85 -1 78 1
88 -1 103 -21 13 -17 32 -23 82 -29 36 -3 77 -8 92 -9 14 -2 31 -6 36 -9 6 -3
41 -1 79 4 145 23 142 19 -12 -15 -88 -19 -166 -34 -174 -35 -8 0 -12 -3 -9
-6 3 -3 33 0 66 6 56 10 76 8 190 -16 14 -3 20 -9 16 -16 -5 -8 0 -9 17 -5 13
4 38 2 54 -3 102 -31 180 -29 320 6 14 3 25 4 25 1 0 -3 -30 -12 -67 -21 -107
-25 -353 -78 -413 -89 -30 -5 -49 -12 -42 -15 7 -2 53 3 102 12 49 9 101 14
117 11 21 -4 23 -3 8 3 -17 8 -15 10 16 16 42 7 69 0 69 -20 0 -8 6 -15 13
-15 6 -1 -6 -5 -28 -9 -37 -7 -38 -7 -9 -9 17 0 47 -7 65 -15 19 -8 48 -13 64
-10 17 2 21 1 11 -2 -15 -5 -16 -8 -5 -15 11 -7 11 -9 -3 -9 -9 0 -19 -4 -22
-9 -8 -12 52 -5 202 26 68 13 126 23 128 21 2 -2 -86 -24 -196 -49 -110 -24
-195 -46 -189 -48 6 -2 38 2 71 9 34 6 78 13 99 15 21 2 43 6 49 10 14 9 52
-4 45 -16 -4 -5 4 -9 15 -9 12 0 44 -11 71 -25 29 -14 57 -22 67 -18 15 6 16
5 2 -13 -8 -10 -19 -22 -23 -25 -19 -14 140 6 256 32 26 6 50 9 53 6 3 -3 -21
-11 -53 -17 -32 -6 -103 -23 -158 -37 -55 -14 -128 -32 -163 -40 -106 -26 -63
-24 66 2 l121 25 78 -21 c43 -11 88 -23 100 -26 12 -3 31 -14 42 -24 23 -22
127 -34 148 -18 7 6 18 7 24 3 8 -4 9 -3 5 5 -6 9 0 10 21 6 18 -5 24 -3 15 3
-9 6 1 9 30 8 58 -1 78 9 78 38 0 19 4 23 19 19 13 -3 18 -10 14 -20 -5 -14 2
-15 48 -10 l54 6 -60 -19 c-33 -10 -161 -41 -285 -70 -124 -28 -229 -56 -235
-62 -7 -7 -2 -8 15 -2 14 4 34 8 46 9 11 1 25 5 32 9 7 4 16 5 20 2 5 -3 26
-1 46 5 29 8 46 7 82 -7 24 -9 47 -14 51 -10 3 3 1 6 -5 6 -19 0 -14 17 7 23
10 2 37 -4 61 -15 23 -11 48 -17 55 -15 18 8 26 57 8 57 -8 0 -12 4 -8 10 3 5
12 7 20 3 9 -3 15 1 15 10 0 13 5 14 28 6 22 -7 28 -17 30 -41 2 -18 10 -40
19 -50 9 -10 14 -28 11 -43 -5 -23 -2 -25 31 -25 l36 -1 -49 -19 c-26 -10
-110 -33 -185 -50 -194 -45 -342 -83 -338 -87 2 -1 72 10 156 26 84 17 159 27
168 24 11 -4 14 -2 9 5 -5 8 0 12 13 12 14 0 23 -9 27 -25 3 -14 11 -25 16
-25 6 0 8 9 5 20 -3 10 0 26 7 35 13 18 93 35 82 17 -4 -8 0 -12 11 -12 15 -1
14 -3 -6 -14 -20 -11 -21 -14 -6 -20 13 -5 16 -15 13 -46 -3 -33 0 -40 14 -40
20 0 32 -16 18 -25 -22 -14 4 -26 44 -21 37 5 38 5 11 -5 -16 -5 -68 -21 -115
-35 -47 -13 -69 -22 -50 -18 118 19 140 21 129 7 -9 -10 -8 -13 4 -13 19 0 30
-27 14 -34 -9 -3 -9 -5 1 -5 6 -1 12 -10 12 -20 0 -14 5 -18 20 -14 25 7 26
-5 3 -23 -16 -12 -14 -13 20 -14 21 0 36 -4 33 -9 -4 -5 0 -12 6 -15 7 -3 -3
-4 -22 -1 -32 5 -33 4 -10 -5 17 -8 32 -8 48 -1 13 6 28 11 35 10 7 0 3 -4 -8
-9 -38 -16 4 -10 137 20 213 49 208 44 -17 -16 -279 -74 -317 -85 -312 -91 4
-4 119 18 174 33 18 5 21 3 16 -16 -5 -20 -3 -21 18 -15 13 3 32 9 42 11 9 3
17 10 17 15 0 5 7 9 15 9 8 0 15 -4 15 -10 0 -5 7 -7 15 -4 11 5 15 -1 15 -25
0 -17 5 -31 10 -31 6 0 10 11 10 25 0 14 5 25 10 25 6 0 10 -15 10 -34 0 -19
8 -42 17 -52 16 -15 16 -17 -1 -29 -16 -13 -16 -14 2 -19 28 -9 125 -5 138 6
7 5 16 8 20 7 22 -4 45 2 40 10 -3 4 7 6 22 3 l27 -5 -25 -8 c-69 -21 -369
-98 -395 -102 l-30 -4 30 -1 c17 -1 63 7 104 18 41 10 78 17 82 14 4 -2 11 1
14 7 4 6 17 8 30 5 13 -3 39 1 58 9 27 11 36 12 40 2 3 -9 12 -7 36 6 l31 18
0 -25 c0 -21 6 -26 35 -32 19 -3 32 -10 29 -15 -3 -5 15 -9 40 -9 41 0 46 3
47 23 l0 22 11 -22 c10 -22 17 -23 114 -23 72 0 104 4 107 13 4 9 6 9 6 0 1
-20 205 -18 221 2 8 10 27 15 51 13 22 -1 83 13 144 33 l105 34 0 2226 0 2226
-107 11 c-59 6 -108 10 -109 9 -3 -4 -14 -1404 -14 -1825 0 -381 -2 -433 -15
-439 -23 -8 -30 4 -12 22 15 14 16 65 13 463 l-3 447 -30 56 -30 56 -2 199
c-1 109 3 213 8 229 l9 30 2 -35 c2 -23 5 -12 11 33 8 76 4 246 -10 322 l-8
50 -4 -50 c-2 -34 -14 365 -14 481 0 1 54 -7 120 -17 66 -10 137 -18 158 -18
l37 -1 0 3115 0 3115 -302 -1 c-167 -1 -293 -4 -281 -6z m-3069 -559 c-5 -4
-69 -14 -243 -38 -22 -3 -148 -21 -280 -41 -132 -20 -289 -42 -350 -51 -60 -8
-123 -17 -140 -19 -61 -9 -834 -115 -950 -130 -66 -9 -163 -23 -216 -31 -98
-14 -136 -17 -128 -10 6 6 410 67 799 121 179 25 352 49 385 55 33 5 195 28
360 51 165 23 386 54 490 69 183 27 284 36 273 24z m-27 -91 c2 -24 2 -25 -6
-45 -5 -12 -2 -18 7 -18 13 0 25 13 48 50 14 23 22 6 11 -24 -6 -14 -17 -26
-26 -26 -8 0 -15 -9 -15 -20 0 -23 10 -26 28 -8 9 9 12 7 12 -8 0 -31 34 -66
48 -52 7 7 12 22 12 35 0 16 6 23 20 23 16 0 20 -7 20 -31 0 -43 24 -59 68
-47 37 10 82 -2 82 -22 0 -7 -6 -8 -19 0 -24 12 -35 -1 -26 -30 4 -11 15 -20
26 -20 30 0 59 -19 59 -38 0 -9 9 -23 21 -30 12 -8 18 -19 15 -28 -7 -18 16
-44 38 -44 9 0 16 -4 16 -10 0 -5 9 -10 20 -10 11 0 20 -4 20 -10 0 -5 15 -10
34 -10 19 0 36 -5 38 -11 2 -6 24 -12 48 -13 103 -8 140 -17 140 -37 0 -20 15
-26 25 -9 9 15 25 12 25 -5 0 -18 26 -20 36 -3 5 8 2 9 -9 5 -10 -3 -17 -2
-17 3 0 6 23 10 50 10 38 0 50 -4 50 -15 0 -17 -16 -20 -23 -5 -3 6 -4 5 -3
-2 1 -7 13 -14 25 -16 16 -3 20 -8 16 -21 -4 -12 2 -21 20 -29 24 -11 25 -10
25 23 l0 35 40 -6 c29 -5 40 -3 40 6 0 9 7 7 20 -5 11 -10 20 -23 19 -29 -1
-6 -1 -26 0 -43 1 -26 5 -33 21 -33 22 0 27 19 9 37 -8 8 -6 14 8 21 25 14 63
-12 45 -30 -7 -7 -12 -17 -12 -24 0 -17 69 -84 87 -84 8 0 21 -6 29 -14 12
-13 12 -16 -3 -24 -15 -9 -15 -12 8 -36 13 -14 34 -26 45 -26 12 0 24 -7 28
-15 3 -8 17 -20 30 -25 22 -8 24 -13 19 -45 -4 -23 -2 -35 6 -35 7 0 11 -19
11 -50 0 -39 3 -50 16 -50 13 0 15 7 10 34 -7 35 0 66 14 66 5 0 6 -25 4 -55
-5 -52 -3 -56 21 -65 14 -5 25 -15 25 -22 0 -9 -3 -9 -12 0 -7 7 -28 12 -47
12 -36 0 -36 0 -11 -13 16 -8 25 -21 24 -35 -1 -27 21 -36 40 -17 8 8 21 15
28 15 8 -1 6 -6 -6 -15 -17 -13 -17 -16 -3 -29 15 -15 40 -137 39 -188 0 -15
6 -32 14 -39 19 -15 18 -40 -1 -33 -9 4 -15 0 -15 -10 0 -9 5 -16 10 -16 6 0
10 -25 10 -57 0 -60 8 -66 17 -11 3 18 7 35 9 37 2 2 -1 12 -6 22 -7 12 -7 20
0 24 5 3 10 -3 10 -14 0 -12 7 -21 15 -21 8 0 15 -7 15 -15 0 -8 -7 -15 -15
-15 -8 0 -15 -4 -15 -10 0 -5 5 -10 10 -10 6 0 10 -12 10 -26 0 -23 3 -25 26
-20 24 6 25 5 19 -24 -5 -23 -3 -32 10 -36 9 -4 15 -15 13 -27 -2 -14 3 -23
15 -25 10 -2 17 3 17 12 0 9 5 16 10 16 6 0 8 -10 4 -24 -3 -13 -1 -27 4 -30
5 -3 8 -26 7 -51 -2 -25 1 -45 6 -45 5 0 9 -16 9 -36 0 -28 3 -35 15 -30 9 3
15 0 15 -8 0 -8 7 -16 15 -20 10 -3 15 1 15 14 0 26 15 33 33 15 9 -8 21 -15
27 -15 6 0 9 -4 5 -9 -3 -6 3 -14 12 -20 17 -9 17 -11 1 -27 -16 -16 -16 -19
-2 -35 20 -22 11 -55 -17 -62 -18 -5 -20 -2 -15 19 4 13 3 24 -1 24 -16 -1
-74 -58 -65 -64 8 -5 54 -12 105 -15 4 -1 7 -7 7 -15 0 -7 7 -19 15 -26 9 -8
13 -21 10 -34 -5 -18 -4 -17 9 4 10 18 11 31 4 50 -16 41 -15 159 1 169 11 7
9 10 -10 13 l-24 5 25 10 c19 8 21 12 10 17 -11 5 -15 22 -15 65 0 70 10 87
24 40 l9 -34 3 35 c1 19 2 49 1 65 -2 29 -1 29 13 11 8 -11 15 -24 15 -30 0
-5 9 0 20 12 12 12 33 22 48 22 16 0 37 7 48 15 18 15 18 15 -8 9 -16 -3 -28
-2 -28 2 1 14 26 44 37 44 6 0 13 10 17 23 5 18 8 19 16 7 8 -13 11 -13 22 1
17 21 87 32 106 17 10 -9 15 -9 22 1 4 8 16 11 29 6 16 -5 23 -1 30 17 6 13
10 17 10 10 1 -16 61 -75 69 -68 3 3 -1 12 -8 20 -26 33 -3 38 32 7 20 -17 40
-31 46 -31 13 0 21 55 10 74 -7 12 -5 16 7 16 8 0 15 -4 15 -10 0 -15 38 -50
55 -50 8 0 15 5 15 12 0 9 3 9 12 0 7 -7 26 -12 43 -12 18 0 42 -9 55 -20 25
-22 40 -26 40 -10 0 6 -4 10 -10 10 -16 0 -11 14 10 27 26 17 77 6 83 -18 5
-20 27 -27 27 -9 0 6 17 9 38 8 20 -1 47 1 59 6 18 6 22 4 17 -8 -4 -11 -1
-16 10 -16 9 0 16 -6 16 -13 0 -8 12 -14 30 -14 18 0 40 -9 55 -23 25 -23 25
-23 40 -4 8 11 15 14 15 7 0 -9 19 -13 58 -14 31 0 51 -3 45 -6 -23 -9 -13
-25 12 -21 14 3 25 2 25 -3 0 -6 -229 -25 -247 -19 -4 1 -17 -19 -30 -45 -20
-42 -21 -52 -11 -97 11 -44 10 -51 -5 -60 -21 -11 -13 -28 14 -28 23 0 25 -15
3 -24 -8 -3 -13 -10 -9 -15 3 -6 13 -7 22 -4 11 5 10 0 -6 -16 -25 -25 -19
-45 10 -36 22 7 27 -13 5 -21 -12 -4 -11 -9 5 -25 12 -12 18 -27 14 -39 -4
-13 0 -20 15 -25 20 -6 21 -8 4 -26 -16 -17 -16 -20 0 -44 13 -20 15 -37 10
-71 -6 -41 -4 -46 15 -51 16 -4 20 -11 16 -24 -5 -14 -1 -19 12 -20 17 -1 17
-2 1 -6 -10 -2 -18 -8 -18 -13 0 -5 8 -14 18 -19 9 -6 11 -11 5 -11 -14 0 -19
-30 -5 -30 4 0 8 -19 9 -42 1 -23 5 -44 10 -45 5 -2 7 -20 5 -40 -3 -25 -1
-34 7 -29 8 5 11 76 11 230 0 215 1 224 21 242 22 19 22 19 10 -3 -8 -16 -11
-448 -11 -1657 0 -1084 -3 -1636 -10 -1636 -5 0 -10 13 -10 29 0 26 -4 30 -39
36 -21 3 -53 7 -72 7 -19 0 -38 3 -44 7 -5 3 -14 6 -20 6 -5 0 -11 19 -13 42
-3 36 0 42 20 49 22 7 21 8 -9 16 -18 5 -33 12 -33 17 0 4 -11 6 -25 3 -15 -2
-25 0 -25 7 0 6 6 11 13 11 13 0 39 75 29 85 -3 3 -16 5 -28 5 -13 0 -27 6
-31 13 -4 7 -21 19 -38 27 l-30 14 28 4 c31 4 27 22 -5 22 -15 0 -18 4 -14 17
4 10 4 15 1 11 -4 -3 -15 1 -26 10 -18 16 -18 17 -2 23 22 8 -69 36 -142 43
-58 6 -146 24 -153 31 -10 9 42 5 178 -14 74 -11 160 -21 190 -23 l55 -3 2
642 c1 368 -2 645 -7 648 -5 3 -52 8 -104 12 l-96 6 -1 69 c-1 37 -2 74 -3 80
-1 15 -99 30 -166 26 l-45 -3 -3 -85 -3 -85 -82 3 c-105 3 -124 8 -124 29 1
170 -4 253 -17 253 -8 0 -16 13 -18 30 -5 36 8 51 15 18 4 -20 4 -20 6 4 1 17
-7 33 -22 45 -13 10 -22 24 -19 31 2 6 -2 12 -8 12 -7 0 -10 7 -7 15 4 8 2 17
-3 20 -15 10 -29 -294 -30 -694 l0 -164 -52 7 c-200 25 -429 16 -481 -19 -14
-10 -6 -13 50 -19 161 -18 181 -25 58 -21 -147 5 -139 0 25 -16 129 -12 171
-17 180 -18 3 -1 4 -49 2 -108 -1 -60 2 -180 6 -268 l9 -160 3 265 4 265 7
-270 c3 -148 7 -393 8 -542 l1 -273 -57 6 c-32 3 -132 16 -223 28 -137 18
-165 25 -168 39 -4 22 14 22 203 -3 83 -11 158 -20 168 -20 16 0 17 29 17 479
l0 478 -37 6 c-21 3 -107 11 -191 19 l-154 12 4 48 c2 34 -1 48 -9 48 -9 0
-13 -16 -13 -45 0 -38 -3 -45 -19 -45 -11 0 -143 11 -293 24 -150 14 -394 34
-543 45 -148 12 -289 23 -313 26 -24 3 -41 1 -38 -4 7 -10 -27 -21 -67 -21
-16 0 -26 -4 -23 -9 3 -4 -14 -16 -37 -26 -24 -10 -48 -27 -53 -39 -5 -11 -15
-20 -22 -19 -6 2 -14 -8 -18 -22 -3 -14 -10 -22 -15 -19 -5 3 -9 -144 -9 -350
l0 -355 43 -5 c171 -24 1382 -176 1395 -176 6 0 12 -9 12 -20 0 -11 -6 -20
-12 -20 -7 0 -116 13 -243 30 -126 16 -392 50 -590 75 -353 44 -546 70 -614
81 -28 5 -33 3 -27 -11 5 -14 1 -16 -31 -11 -21 3 -91 13 -155 22 -65 10 -118
21 -118 26 0 4 8 8 18 8 28 0 101 29 132 52 44 32 55 67 40 129 -10 41 -10 53
0 59 7 5 18 7 24 5 6 -2 28 -6 49 -8 l37 -5 0 219 c0 139 -4 219 -10 219 -5 0
-10 7 -10 16 0 8 -4 12 -10 9 -6 -3 -10 4 -10 16 0 12 -3 20 -6 16 -3 -3 -18
-1 -32 4 -16 6 -29 6 -35 0 -7 -7 -5 -13 7 -17 22 -9 46 -56 45 -91 -1 -28 -1
-28 -15 7 l-14 35 5 -35 5 -35 -16 25 c-8 14 -13 17 -10 8 3 -10 1 -20 -4 -23
-6 -4 -10 -1 -10 6 0 7 -2 10 -4 8 -2 -2 3 -38 10 -79 8 -41 15 -106 14 -145
0 -63 -3 -72 -27 -92 -83 -68 -387 -73 -537 -8 -14 6 -17 5 -12 -4 4 -7 9 -22
10 -35 3 -21 -1 -23 -43 -21 -31 2 -34 1 -10 -2 27 -3 38 -10 42 -25 7 -24 -9
-71 -21 -64 -9 5 -40 -41 -40 -59 0 -5 5 -16 11 -24 13 -16 13 -16 -265 14
-81 8 -206 17 -277 19 -71 2 -133 6 -139 10 -15 9 -256 50 -502 86 -269 39
-463 68 -580 85 -52 8 -144 21 -205 29 -135 18 -1184 167 -1655 236 -190 27
-471 68 -626 90 l-281 41 -349 -16 c-481 -21 -1184 -54 -1394 -64 -108 -6
-176 -14 -178 -20 -2 -6 -22 -11 -44 -11 -30 0 -39 -3 -35 -14 4 -11 -8 -16
-51 -20 -66 -7 -440 -26 -492 -25 -31 1 -32 2 -10 8 l25 7 -30 8 c-20 5 -32 3
-40 -6 -5 -7 -19 -14 -30 -15 -11 -1 -49 -5 -84 -9 -46 -5 -62 -4 -57 5 4 6 2
11 -3 11 -6 0 -11 -4 -11 -9 0 -5 -18 -8 -40 -7 -22 1 -42 0 -45 -2 -2 -3 -52
-7 -111 -9 -74 -3 -104 -1 -99 6 3 6 1 11 -4 11 -6 0 -11 8 -12 18 0 14 -2 14
-8 -3 -5 -11 -7 -23 -4 -27 2 -5 -5 -8 -16 -8 -14 0 -19 5 -15 14 4 11 0 13
-15 9 -12 -3 -21 -1 -21 5 0 6 10 13 23 15 15 3 12 5 -11 6 -20 0 -31 -3 -27
-9 3 -6 -6 -11 -22 -11 l-28 -2 28 -4 c15 -2 27 -9 27 -15 0 -7 -18 -9 -52 -5
-38 5 -49 4 -38 -4 11 -8 1 -9 -37 -6 -29 2 -50 0 -47 -5 6 -10 -14 -9 -41 1
-11 5 -27 5 -35 1 -8 -4 -82 -11 -163 -15 -124 -5 -152 -4 -165 8 -10 8 -26
17 -37 20 -18 4 -18 5 3 6 12 0 34 -6 47 -15 20 -13 25 -14 25 -3 0 23 -42 34
-100 28 -30 -3 -50 -7 -45 -8 6 -1 1 -8 -9 -16 -11 -8 -14 -15 -8 -15 7 0 12
-4 12 -10 0 -5 -22 -10 -50 -10 -38 0 -50 4 -50 15 0 31 -47 36 -237 26 -102
-5 -187 -12 -190 -15 -4 -3 -11 -2 -17 3 -7 6 -79 6 -181 1 -94 -5 -249 -11
-345 -14 -469 -16 -499 -18 -505 -34 -3 -8 -3 -24 1 -35 4 -14 2 -18 -7 -15
-8 3 -15 17 -17 31 -4 34 -26 49 -129 83 -46 15 -83 32 -83 37 0 5 9 7 20 4
11 -3 20 0 20 6 0 8 3 8 11 0 9 -9 15 -8 26 3 17 16 33 18 33 4 0 -5 6 -7 13
-4 7 2 53 -5 103 -17 127 -30 122 -30 319 -19 224 12 365 18 570 26 88 4 196
10 240 15 56 5 28 6 -95 3 -753 -22 -804 -23 -825 -15 -19 8 -19 8 2 19 26 14
113 16 113 3 0 -9 40 -7 98 5 12 2 22 12 22 20 0 12 6 15 25 10 17 -4 31 -1
41 9 14 13 64 22 64 11 0 -2 3 -12 6 -20 4 -12 2 -15 -9 -10 -8 3 -18 0 -23
-7 -5 -9 1 -10 26 -5 19 3 37 10 40 16 3 5 21 5 45 -2 101 -26 157 -19 171 24
3 10 8 17 12 14 4 -2 34 1 67 6 33 5 75 9 94 9 19 0 48 6 65 14 17 8 54 13 82
12 l52 -2 6 64 c6 67 15 81 54 81 12 0 22 5 22 11 0 6 18 9 44 8 26 -2 51 3
60 10 9 8 23 10 33 6 10 -5 24 -9 32 -11 8 -1 18 -9 22 -16 7 -10 9 -10 9 0 0
6 10 12 23 12 18 0 19 2 7 10 -12 8 -9 10 13 10 19 0 27 -5 28 -17 1 -16 2
-16 6 -2 5 22 50 30 64 13 13 -16 33 -19 24 -4 -4 6 11 10 39 10 25 0 47 4 50
8 6 10 66 9 83 -1 18 -11 128 4 111 15 -9 7 -7 8 7 5 93 -23 173 -28 179 -11
2 6 29 11 67 12 39 1 66 6 71 14 8 10 11 10 15 1 6 -17 33 -16 71 3 18 8 36
13 42 9 5 -3 7 0 4 8 -6 16 22 31 31 17 8 -13 65 -13 65 0 0 6 -9 10 -20 10
-11 0 -20 5 -20 10 0 6 11 10 25 10 16 0 25 -6 25 -15 0 -8 6 -15 14 -15 8 0
17 -6 20 -12 3 -7 3 -1 0 13 -7 31 8 45 26 24 6 -7 18 -11 26 -8 8 3 14 0 14
-6 0 -6 5 -11 10 -11 6 0 10 7 10 15 0 8 -7 15 -15 15 -8 0 -15 3 -15 6 0 12
35 33 54 34 15 0 16 -3 6 -15 -7 -9 -11 -17 -8 -20 7 -8 48 7 48 17 0 6 6 5
14 -2 9 -7 13 -23 11 -41 -4 -32 6 -37 25 -14 7 8 16 15 21 15 5 0 9 -7 9 -15
0 -8 7 -15 15 -15 8 0 15 5 15 11 0 7 7 8 18 4 9 -4 31 -8 47 -9 17 -2 45 -6
64 -10 24 -6 32 -5 27 3 -5 8 8 10 46 6 119 -12 177 -16 263 -16 58 0 92 -4
97 -12 5 -9 10 -9 18 -1 7 7 26 8 54 3 24 -4 76 -10 116 -13 40 -3 75 -8 78
-11 3 -3 11 0 18 6 8 7 19 7 31 1 10 -5 52 -10 93 -10 41 -1 98 -4 125 -7 62
-7 136 -14 240 -20 44 -3 115 -10 159 -15 60 -8 82 -7 94 2 12 10 14 9 11 -7
-4 -17 -13 -20 -72 -21 -37 -1 -71 -4 -74 -8 -4 -3 60 -6 141 -6 139 0 180
-10 102 -24 -41 -8 -62 -29 -44 -44 21 -16 222 -35 358 -33 69 1 208 6 308 12
185 10 405 2 567 -22 39 -6 126 -11 196 -11 122 -1 189 11 254 45 37 20 135 6
135 -19 0 -8 4 -14 9 -14 5 0 11 -11 13 -25 3 -14 1 -25 -3 -25 -5 0 -9 9 -9
20 0 24 -16 26 -28 3 -6 -10 -16 -14 -26 -10 -9 4 -16 2 -16 -4 0 -6 10 -9 23
-7 12 2 27 -3 33 -11 17 -22 133 -27 170 -8 34 18 87 15 164 -7 30 -9 86 -16
125 -15 53 1 62 3 39 8 -50 12 -54 19 -55 84 0 34 -6 105 -13 157 -7 52 -12
97 -10 99 2 2 40 7 85 11 124 11 128 46 7 49 -42 1 -48 4 -48 22 0 21 3 22 80
15 84 -7 164 -31 154 -47 -3 -5 0 -9 5 -9 14 0 14 -47 1 -55 -5 -3 -10 -15
-10 -26 0 -10 -4 -19 -9 -19 -9 0 -25 -149 -16 -158 3 -3 38 -11 78 -17 40 -6
71 -16 70 -21 -1 -6 26 -9 65 -7 48 2 60 0 42 -6 -22 -8 -22 -9 -4 -10 11 -1
25 4 31 10 8 8 13 5 18 -11 6 -20 12 -21 103 -19 54 1 108 -1 122 -5 56 -13
227 -34 258 -31 25 2 32 -1 32 -16 0 -26 15 -31 94 -32 74 0 116 9 127 26 5 6
76 2 205 -12 238 -25 229 -25 232 -3 12 103 25 135 38 90 3 -14 22 -31 49 -44
l43 -20 6 30 c3 17 5 59 5 92 l0 62 -37 5 c-23 3 -46 -1 -60 -10 -22 -14 -23
-13 -20 9 3 20 10 24 53 28 42 4 50 8 50 25 0 26 -79 78 -106 70 -11 -4 -17
-10 -14 -15 6 -10 -21 -7 -31 3 -4 4 0 9 8 12 22 9 11 45 -13 45 -11 0 -19 -4
-19 -9 0 -5 -6 -11 -14 -14 -8 -3 -13 1 -12 11 1 13 -10 17 -49 19 -27 1 -93
8 -146 14 -53 7 -104 9 -113 6 -10 -4 -15 -3 -12 2 3 4 -32 11 -77 14 -45 3
-122 11 -172 16 -49 6 -119 13 -155 16 -72 6 -279 34 -295 40 -5 2 35 2 90 -1
l100 -3 -105 14 c-111 15 -237 28 -512 51 -43 3 -78 10 -78 16 0 5 -5 6 -11 2
-8 -4 -7 0 1 15 6 12 19 21 28 20 28 -2 62 13 62 28 0 10 4 11 19 3 12 -6 22
-6 25 -1 8 12 -3 41 -15 41 -5 0 -9 7 -9 15 0 13 4 14 21 5 11 -7 24 -8 27 -4
4 4 1 9 -7 12 -11 4 -11 6 0 13 10 6 11 11 3 19 -8 8 -16 7 -27 -4 -10 -10
-18 -12 -22 -6 -3 5 -2 10 4 10 6 0 8 7 5 15 -4 8 -1 15 5 15 16 0 14 23 -4
46 -15 18 -15 18 -9 -8 8 -35 -2 -35 -33 -1 -14 14 -28 22 -31 17 -4 -5 -20
-11 -37 -13 -16 -1 -34 -10 -41 -18 -10 -14 -12 -14 -17 2 -4 10 -13 15 -22
11 -9 -3 -15 0 -15 9 0 8 -5 15 -10 15 -6 0 -4 15 5 36 8 20 15 38 15 39 0 6
-51 -9 -56 -16 -7 -12 -24 -11 -24 2 0 5 5 7 10 4 6 -3 10 -1 10 5 0 6 -7 13
-15 16 -8 4 -15 15 -15 26 0 14 -5 18 -19 13 -21 -6 -38 21 -18 28 7 2 1 2
-12 0 -18 -3 -22 -1 -17 12 3 9 6 22 6 28 0 8 4 7 9 -2 5 -7 14 -10 20 -7 15
10 14 26 -2 20 -7 -2 -23 4 -35 14 -26 22 -28 32 -8 32 20 0 29 17 21 38 -4
12 -8 13 -14 4 -15 -25 -39 -2 -37 34 2 19 0 34 -3 34 -3 0 -13 14 -20 32 -8
18 -16 27 -19 20 -2 -7 2 -19 8 -28 7 -8 9 -18 5 -22 -4 -4 -10 -2 -12 4 -2 7
-12 10 -22 7 -12 -3 -20 2 -23 15 -4 14 0 22 14 25 15 4 19 13 16 38 -4 40 11
46 42 17 l23 -22 -6 23 c-4 18 -1 24 14 28 10 3 19 9 19 15 0 5 10 4 21 -3 16
-8 23 -8 29 1 4 6 29 12 56 12 27 0 54 4 60 9 12 10 74 -11 74 -25 0 -5 9 -1
20 9 15 13 43 20 93 24 54 5 72 10 73 21 3 33 5 34 19 16 8 -11 15 -14 15 -8
0 7 7 12 16 12 14 0 14 3 4 15 -10 13 -9 15 9 15 14 0 21 6 21 20 0 10 9 24
20 30 11 6 20 19 20 30 0 10 8 23 18 29 9 5 15 13 12 18 -3 4 10 9 28 11 26 3
32 8 31 25 0 12 -3 16 -6 10 -2 -7 -14 -13 -26 -12 -12 0 -16 3 -9 6 6 2 12
16 12 29 0 13 4 24 9 24 5 0 15 16 21 35 6 19 18 35 25 35 8 0 17 9 20 20 3
11 15 25 26 30 14 8 18 17 13 35 -4 16 0 30 11 41 9 9 15 26 13 38 -1 11 2 28
7 36 5 8 10 30 12 49 4 36 23 58 34 40 8 -14 19 15 19 50 0 18 9 35 25 47 27
20 32 39 13 47 -7 3 -2 6 11 6 16 1 21 5 18 16 -4 8 4 22 18 33 34 27 59 90
43 110 -10 12 -10 16 -1 19 7 3 15 4 18 3 10 -1 35 28 35 41 0 7 3 9 7 6 15
-16 31 15 26 50 -6 33 -4 35 16 28 18 -5 22 -2 27 24 4 17 10 31 15 31 4 0 11
9 14 20 3 11 13 20 21 20 8 0 14 7 14 16 0 10 -6 14 -15 10 -10 -4 -15 1 -15
14 0 11 5 20 10 20 6 0 10 -6 10 -12 0 -9 4 -8 10 2 5 8 7 33 3 55 -3 22 -2
37 2 32 5 -4 12 -26 16 -50 l6 -42 2 53 c0 28 6 52 11 52 6 0 10 68 10 184 0
209 4 245 29 240 40 -8 122 -17 186 -19 39 -2 78 -7 89 -11 10 -4 27 -2 38 5
16 10 22 7 42 -16 23 -26 24 -35 28 -211 3 -146 7 -185 18 -192 19 -12 43 -13
36 -1 -4 5 14 9 39 9 32 0 43 -3 38 -11 -4 -7 1 -6 10 2 9 7 17 22 17 33 0 17
3 18 14 9 10 -9 16 -9 21 -1 4 6 14 8 24 5 23 -10 81 -15 81 -7 0 4 34 8 76 9
42 2 81 6 88 11 6 5 31 10 56 11 24 0 52 3 61 6 12 4 20 -1 24 -15 8 -25 16
-25 45 0 23 20 34 24 59 21 7 -2 10 2 6 8 -12 20 61 12 88 -9 26 -21 26 -21
37 -1 11 21 37 19 52 -3 5 -7 8 -7 8 2 0 9 8 11 23 8 12 -3 16 -3 10 0 -25 11
-12 19 32 21 39 1 45 -1 45 -18 0 -19 1 -19 16 -5 20 20 25 20 17 0 -5 -13 -1
-15 18 -9 13 4 37 16 52 27 19 13 37 18 53 14 38 -10 28 -25 -13 -20 l-38 6
25 -21 c14 -11 26 -16 28 -12 2 5 12 7 23 4 10 -3 26 1 35 8 9 7 23 14 32 16
9 1 22 9 28 18 10 14 12 13 17 -4 4 -17 9 -18 53 -9 27 5 84 7 127 3 61 -4 77
-3 77 8 0 22 -11 27 -27 11 -14 -13 -17 -13 -34 2 -22 20 -17 33 6 14 10 -8
15 -9 15 -1 0 16 37 13 44 -4 3 -10 18 -14 43 -14 21 1 57 -3 81 -9 34 -7 42
-7 38 3 -5 14 23 45 41 45 6 0 14 6 17 13 3 6 3 0 0 -15 -5 -21 -2 -28 10 -28
9 0 16 -5 16 -12 0 -6 3 -9 6 -5 3 3 17 1 31 -4 21 -8 26 -6 30 11 4 15 14 20
39 20 18 0 37 6 41 14 5 9 18 12 36 9 36 -7 35 -23 -3 -23 -22 0 -28 -4 -24
-15 7 -17 49 -20 59 -5 3 6 19 10 36 10 16 0 29 5 29 10 0 19 59 11 72 -10 14
-22 34 -26 40 -9 6 19 79 29 102 13 40 -28 103 -13 119 29 7 18 27 24 27 7 0
-5 8 -18 18 -27 22 -23 67 -18 94 9 15 15 28 19 49 14 22 -4 29 -2 29 9 0 23
27 17 35 -7 4 -13 7 -26 6 -30 -1 -5 4 -8 9 -8 6 0 10 7 10 15 0 8 9 15 19 15
11 0 27 3 36 7 14 5 16 2 10 -15 -8 -26 19 -32 29 -7 3 8 15 15 26 15 12 0 19
4 15 9 -5 9 27 22 81 34 13 3 25 -3 33 -14 14 -24 37 -24 46 -1 6 15 8 14 16
-7 9 -22 11 -22 27 -9 21 18 148 32 158 17 7 -11 63 -3 79 12 12 12 28 11 20
-1 -9 -14 8 -12 41 5 26 13 29 13 32 0 4 -17 27 -14 97 12 22 9 58 18 80 20
22 3 47 12 56 20 14 12 17 12 23 -3 3 -9 13 -14 21 -10 8 3 17 1 20 -4 12 -19
30 -10 44 22 l15 33 8 -33 c10 -38 17 -40 46 -9 19 21 21 33 22 230 0 136 -3
207 -10 207 -5 0 -10 -3 -10 -7 0 -5 -37 -8 -82 -8 -108 0 -249 -15 -242 -26
3 -5 -2 -6 -10 -3 -9 3 -13 10 -10 15 7 13 -13 11 -39 -3 -13 -6 -76 -12 -152
-13 -71 -1 -182 -8 -245 -15 -63 -7 -164 -13 -225 -15 -60 -1 -137 -7 -170
-13 -33 -5 -75 -9 -94 -7 -19 2 -54 -3 -79 -11 -33 -9 -50 -10 -59 -2 -9 7
-17 7 -27 -1 -8 -7 -53 -12 -112 -12 -107 0 -224 -24 -224 -47 0 -9 -5 -10
-19 -2 -11 5 -33 10 -50 10 -16 0 -33 5 -36 10 -3 6 -22 10 -42 10 -31 0 -35
-3 -30 -21 4 -15 1 -19 -11 -16 -9 2 -16 8 -15 14 3 14 -172 8 -212 -7 -18 -7
-74 -10 -136 -9 -58 1 -110 0 -115 -3 -14 -9 -58 -13 -69 -7 -16 8 -126 -2
-120 -11 8 -14 -15 -23 -28 -12 -7 6 -41 13 -77 16 -44 3 -55 2 -35 -3 35 -10
35 -10 -115 -16 -272 -12 -317 -15 -340 -20 -22 -5 -22 -4 -5 4 17 8 14 10
-18 10 -23 1 -36 -3 -32 -9 3 -5 2 -10 -4 -10 -5 0 -13 5 -16 10 -4 6 -16 8
-28 4 -24 -7 -62 -9 -342 -17 -197 -5 -446 6 -495 22 -24 8 -24 9 10 14 36 6
429 37 465 37 19 0 20 6 19 87 0 49 1 78 3 66 6 -31 23 -29 23 3 0 32 22 27
31 -7 6 -19 7 -15 8 19 1 23 6 42 11 42 6 0 10 9 10 20 0 11 3 20 8 20 4 0 6
18 4 40 -3 32 -1 40 12 40 9 0 16 -5 16 -11 0 -6 6 -9 12 -7 12 4 14 24 17
154 1 39 3 42 36 48 19 4 39 14 44 24 8 13 10 14 11 2 0 -10 3 -11 11 -3 6 6
8 16 5 22 -9 14 -34 3 -39 -17 -4 -15 -7 3 -7 36 0 4 10 7 22 7 25 0 35 26 37
95 1 25 5 52 11 60 6 9 5 17 -3 22 -9 5 -9 10 1 20 9 9 12 9 12 0 0 -7 7 -12
15 -12 8 0 15 5 15 10 0 6 7 10 15 10 8 0 15 8 15 18 0 10 6 19 13 20 92 13
114 27 57 39 -28 5 -44 33 -19 33 5 0 7 -4 4 -10 -3 -5 1 -10 10 -10 9 0 13 5
10 10 -3 6 2 11 12 11 24 2 35 4 53 11 13 5 97 19 200 33 14 2 54 8 90 14 36
5 115 17 175 25 61 8 178 24 260 36 83 11 206 27 273 35 68 8 127 17 130 19 4
2 32 7 62 10 101 12 124 15 210 27 47 6 105 13 130 14 25 2 45 4 45 5 0 2 11
3 25 5 14 1 51 5 82 9 34 4 64 3 75 -3 12 -6 25 -6 34 0 11 7 8 9 -11 10 -20
1 -18 3 10 9 64 14 90 11 91 -7z m-11413 -73 c589 -45 1223 -93 1532 -115 113
-9 318 -24 455 -35 309 -24 551 -42 990 -75 187 -14 345 -27 350 -30 20 -7
-83 -5 -185 5 -58 6 -262 21 -455 35 -792 56 -1360 98 -1835 136 -212 16 -538
41 -725 54 -419 31 -709 55 -714 61 -8 8 68 3 587 -36z m752 -175 c0 -7 -8
-19 -17 -25 -13 -8 -15 -13 -5 -16 7 -3 19 -12 26 -20 18 -17 43 -18 49 -1 2
6 8 9 12 5 4 -4 2 -14 -5 -23 -10 -12 -10 -15 4 -15 14 0 17 8 14 42 -3 39 -6
43 -33 49 -21 4 -11 6 32 7 57 1 61 -1 67 -24 4 -14 4 -29 1 -35 -7 -11 23
-25 33 -15 3 4 0 11 -8 16 -20 12 -13 16 44 25 46 6 48 5 43 -14 -7 -30 14
-26 43 7 21 25 28 27 82 24 32 -2 58 -8 58 -13 0 -5 9 -9 20 -9 22 0 27 15 8
24 -7 4 -2 4 12 1 14 -2 33 -5 43 -5 10 0 15 -4 12 -10 -4 -6 12 -10 41 -10
57 0 55 -8 -2 -11 -36 -2 -40 -5 -36 -26 3 -16 11 -23 26 -23 15 0 17 3 7 9
-9 6 -10 11 -2 15 19 12 77 -13 117 -50 40 -36 74 -45 74 -19 0 8 -4 15 -9 15
-5 0 -11 7 -15 15 -3 9 0 15 8 15 8 0 16 -9 19 -21 5 -18 11 -20 36 -14 24 5
31 3 31 -9 0 -24 27 -19 34 7 6 21 7 21 21 3 12 -16 24 -18 84 -14 51 3 72 0
75 -9 3 -7 15 -13 26 -13 11 0 20 -7 20 -15 0 -8 12 -17 28 -21 15 -4 32 -13
39 -21 17 -22 33 -7 33 33 0 19 5 34 10 34 6 0 10 -14 10 -31 0 -22 5 -32 20
-36 22 -6 26 -18 10 -28 -8 -5 -7 -11 1 -21 14 -17 76 -19 81 -2 2 6 10 8 17
4 9 -6 9 -11 1 -21 -8 -9 -7 -13 2 -12 24 1 78 -15 78 -24 0 -12 -27 -11 -35
1 -3 6 -17 10 -31 10 -20 0 -24 -5 -24 -30 0 -16 -4 -30 -10 -30 -17 0 -11
-47 7 -66 17 -16 18 -16 24 7 4 13 7 19 8 13 2 -21 33 -25 47 -7 7 10 14 13
14 7 0 -17 42 -25 57 -12 8 6 12 17 9 24 -3 7 2 15 10 18 9 3 16 -3 20 -19 5
-19 13 -25 34 -25 16 0 30 -4 32 -8 5 -13 58 -24 58 -12 0 5 -9 10 -20 10 -27
0 -25 15 3 26 26 11 77 7 77 -7 0 -14 28 -11 33 4 2 6 9 -6 15 -28 7 -22 18
-49 26 -60 14 -19 15 -19 21 -2 8 20 41 23 48 5 2 -8 8 -9 13 -4 5 5 4 11 -3
13 -7 3 -13 11 -13 19 0 11 7 13 28 8 15 -4 31 -12 35 -18 6 -8 10 -7 14 2 6
14 39 16 48 2 3 -6 -1 -13 -9 -16 -9 -3 -16 -13 -16 -21 0 -11 5 -13 18 -8 25
11 72 18 72 11 0 -4 -11 -11 -25 -16 -14 -5 -25 -17 -25 -26 0 -13 7 -15 38
-11 20 3 29 3 20 1 -10 -3 -18 -14 -18 -24 0 -22 -68 -39 -80 -20 -6 9 -9 9
-15 0 -9 -15 12 -30 43 -30 13 0 21 -4 17 -9 -3 -6 -23 -9 -45 -8 -22 1 -34 4
-27 9 9 5 6 13 -10 29 l-22 23 -10 -26 c-8 -20 -15 -25 -35 -21 -29 6 -32 13
-14 31 9 9 7 12 -9 12 -16 0 -23 7 -25 28 -3 17 -7 5 -12 -35 -9 -63 -26 -87
-26 -35 -1 26 -1 26 -15 8 -13 -18 -16 -18 -27 -4 -7 8 -23 18 -36 21 -18 4
-25 0 -32 -17 -13 -34 -103 -40 -221 -15 -106 22 -109 23 -109 52 -1 22 -1 22
-15 3 -8 -11 -15 -28 -15 -38 0 -10 -7 -18 -15 -18 -8 0 -15 5 -15 10 0 7 -13
8 -35 4 -38 -7 -90 9 -99 31 -5 14 -35 11 -73 -7 -12 -6 -39 -8 -60 -6 -25 4
-43 1 -51 -8 -12 -13 -18 -13 -57 2 -11 4 -28 6 -37 5 -13 -2 -16 2 -11 15 3
10 2 15 -3 13 -5 -3 -21 -11 -36 -18 -20 -10 -40 -11 -82 -4 -30 5 -60 7 -67
3 -12 -8 -70 9 -81 24 -3 5 -14 2 -23 -7 -21 -21 -45 -21 -93 -1 -27 11 -53
13 -98 9 -48 -6 -64 -4 -76 8 -10 10 -45 18 -102 23 -89 7 -117 23 -43 25 l42
1 -45 9 c-39 8 -47 7 -58 -9 -17 -25 -60 -18 -64 11 -3 21 -4 21 -28 -4 -22
-22 -30 -24 -55 -16 -17 6 -32 13 -35 17 -3 4 -17 10 -32 14 -20 4 -32 1 -46
-14 -23 -24 -82 -18 -82 9 0 13 -2 14 -9 2 -8 -12 -14 -7 -31 22 -19 32 -26
36 -48 30 -15 -3 -30 -10 -33 -15 -3 -6 -9 1 -13 14 -5 19 -8 20 -16 8 -9 -13
-11 -13 -20 0 -8 13 -11 12 -16 -7 -8 -28 -36 -34 -113 -23 -67 9 -86 5 -86
-20 0 -9 -7 -14 -19 -12 -10 2 -16 0 -14 -5 2 -4 12 -27 22 -50 10 -24 24 -43
32 -43 8 0 14 -4 14 -10 0 -5 14 -10 31 -10 19 0 28 -4 24 -11 -4 -6 -23 -9
-44 -8 -27 2 -35 -1 -33 -11 2 -8 7 -17 11 -20 19 -13 20 -43 1 -67 -11 -14
-20 -35 -20 -45 0 -11 -9 -22 -20 -25 -12 -3 -17 -10 -12 -17 4 -6 10 -56 14
-111 4 -55 10 -122 13 -150 3 -27 6 -66 8 -85 1 -19 6 -41 11 -49 5 -8 4 -16
-5 -22 -11 -7 -11 -11 -1 -17 9 -6 13 -91 17 -353 3 -189 8 -369 12 -399 3
-30 6 -58 5 -61 0 -3 -1 -39 -1 -80 0 -41 -1 -87 -1 -104 -1 -70 22 -274 37
-325 9 -30 15 -61 14 -68 -4 -26 20 -120 33 -125 7 -3 18 -22 24 -43 17 -54
30 -67 87 -94 37 -17 84 -26 185 -34 170 -15 687 -19 885 -7 95 6 154 6 162 0
6 -6 14 -6 16 -2 3 5 119 10 259 12 139 2 307 6 372 10 65 3 350 6 631 6 283
0 511 4 508 9 -3 4 5 5 17 1 32 -10 135 -13 519 -15 265 -1 354 -5 385 -15 24
-8 108 -17 201 -20 88 -4 246 -11 350 -16 105 -5 264 -11 355 -14 90 -2 171
-7 180 -11 8 -3 81 -8 163 -10 81 -2 155 -8 165 -13 9 -5 37 -10 62 -11 171
-7 219 -13 230 -31 3 -5 30 -5 60 0 58 9 114 -3 104 -22 -3 -7 1 -4 9 6 10 12
22 16 39 12 13 -3 44 -8 68 -10 86 -6 130 -17 130 -32 0 -8 -4 -11 -10 -8 -5
3 -10 1 -10 -4 0 -6 5 -11 10 -11 6 0 10 -43 10 -110 0 -91 3 -112 16 -117 29
-11 37 15 40 131 1 63 5 119 8 124 3 5 -2 9 -10 9 -8 0 -13 -6 -10 -14 3 -7 1
-13 -3 -13 -5 0 -11 6 -14 13 -2 6 -6 16 -8 21 -2 6 27 11 66 13 38 2 75 9 82
15 10 8 9 1 -2 -25 -8 -20 -10 -37 -5 -39 5 -2 10 -51 11 -111 3 -122 14 -143
73 -139 26 2 35 -2 39 -18 5 -18 0 -20 -39 -20 -24 0 -47 0 -51 1 -5 0 -8 11
-7 23 1 22 -3 23 -72 25 -46 1 -74 -2 -74 -9 0 -5 5 -10 10 -10 6 0 10 -9 10
-20 0 -15 -7 -20 -26 -20 -18 0 -25 4 -21 14 3 8 0 22 -7 31 -10 14 -21 16
-54 10 -36 -6 -42 -10 -42 -31 0 -22 -4 -24 -55 -24 -54 0 -61 5 -57 42 1 3
-19 8 -43 10 -45 3 -45 3 -45 -29 0 -33 0 -33 -50 -33 -47 0 -50 2 -50 25 0
22 -9 30 -32 26 -4 0 -37 -1 -73 -2 -36 -1 -67 -5 -70 -9 -3 -4 17 -13 43 -20
81 -21 102 -30 52 -24 -25 4 -62 13 -82 20 -32 11 -40 11 -52 -1 -19 -19 -29
-69 -21 -96 5 -14 3 -19 -3 -15 -6 4 -16 -3 -22 -14 -11 -20 -10 -20 35 2 51
25 66 18 58 -25 -4 -21 -8 -25 -14 -15 -6 9 -9 7 -9 -9 0 -13 -5 -23 -10 -23
-6 0 -10 -6 -9 -12 3 -29 -2 -47 -23 -74 l-22 -28 -7 25 c-4 13 -7 40 -8 61
-1 32 -3 35 -23 30 -15 -3 -19 -2 -14 7 6 9 0 10 -20 5 -17 -5 -25 -3 -21 3 4
6 -4 13 -18 15 -29 6 -30 3 -41 -107 -5 -54 -9 -64 -15 -45 -6 21 -7 17 -8
-18 -1 -29 4 -44 14 -48 8 -4 15 -12 15 -20 0 -17 -16 -18 -24 -1 -3 6 -5 -1
-4 -18 1 -16 -3 -50 -8 -75 -7 -35 -10 1 -14 165 -3 116 -2 212 2 216 15 11
-15 175 -44 244 -23 52 -31 86 -31 133 0 34 -4 62 -9 62 -16 0 -20 -52 -9
-103 7 -29 12 -59 12 -67 0 -8 7 -49 14 -90 25 -138 25 -149 7 -159 -9 -5 -55
-9 -102 -10 -127 -2 -1847 -49 -1900 -52 -10 0 -8 -3 5 -9 16 -7 16 -9 4 -9
-9 -1 -19 -8 -23 -16 -4 -11 -13 -14 -31 -9 -29 7 -34 -10 -7 -25 13 -8 14
-10 2 -11 -21 0 -35 12 -44 35 -7 20 -8 20 -22 1 -13 -19 -14 -19 -38 7 -16
18 -30 24 -45 20 -12 -3 -27 -1 -34 5 -7 6 -45 9 -87 7 -41 -2 -262 -7 -490
-10 -228 -4 -510 -10 -627 -14 -181 -5 -213 -4 -222 9 -9 13 -14 11 -36 -13
-20 -22 -29 -26 -39 -18 -16 13 -49 4 -43 -13 4 -12 9 -12 162 -15 65 -2 93
-5 80 -11 -33 -14 -1030 -43 -1054 -31 -11 6 -32 12 -48 13 -15 1 22 5 82 8
112 7 169 19 240 51 22 10 50 16 63 13 12 -4 32 0 44 8 33 21 76 30 83 17 8
-13 -21 -36 -55 -44 -62 -14 -110 -30 -110 -36 0 -8 62 -3 110 9 19 4 55 4 80
0 24 -5 82 -8 128 -7 77 1 86 3 117 30 18 16 38 29 44 29 16 0 13 17 -4 24 -8
3 -15 1 -15 -4 0 -5 -7 -7 -15 -4 -8 4 -15 1 -15 -5 0 -23 -61 -42 -148 -44
-78 -2 -87 0 -90 17 -4 17 1 18 49 13 30 -4 64 -9 76 -13 18 -5 23 -1 28 19 4
14 22 36 41 49 51 35 39 54 -15 24 -14 -8 -32 -11 -40 -8 -10 4 -13 1 -8 -11
9 -23 -21 -37 -82 -37 -58 0 -81 7 -81 25 0 8 20 17 53 23 48 8 50 10 27 19
-29 12 -80 0 -96 -22 -13 -17 -50 -20 -59 -5 -3 6 -11 10 -18 10 -8 0 -8 -3 1
-12 22 -22 12 -30 -28 -23 -30 5 -40 4 -38 -6 3 -14 -17 -16 -84 -4 -35 5 -48
12 -48 24 0 22 -66 43 -80 26 -6 -7 -36 -12 -71 -13 -34 0 -66 -5 -72 -11 -6
-6 -20 -11 -31 -11 -48 0 -97 -21 -106 -46 -9 -24 -11 -24 -142 -24 -129 -1
-261 -7 -285 -15 -6 -2 -13 -14 -16 -27 -4 -22 -5 -21 -17 9 -18 42 -48 50
-58 15 -4 -15 -7 -118 -7 -229 0 -110 -3 -199 -6 -197 -4 2 -10 -8 -13 -22 -5
-17 -19 -30 -44 -40 -34 -14 -141 -66 -182 -88 -25 -14 -73 -94 -77 -130 -7
-63 -1 -211 10 -222 4 -4 2 -13 -4 -21 -8 -9 -8 -21 -1 -40 6 -16 13 -48 15
-71 4 -29 12 -49 26 -59 25 -17 20 -30 -17 -44 -34 -13 -490 -50 -574 -46 -35
1 -186 -4 -336 -12 -193 -9 -280 -10 -295 -3 -12 6 -29 13 -37 15 -8 3 2 6 23
6 21 1 36 5 32 10 -3 5 -1 12 5 16 5 3 10 17 10 30 0 22 4 23 40 20 30 -3 40
0 40 11 0 8 5 14 10 14 6 0 10 11 10 25 0 20 6 27 29 31 16 3 28 11 27 18 -1
15 88 116 103 116 14 0 14 -13 -1 -28 -9 -9 -9 -12 3 -12 20 0 34 12 37 33 5
27 -16 47 -49 47 -40 0 -39 29 2 37 18 3 26 9 19 13 -7 5 -9 20 -5 44 5 27 12
36 27 36 11 0 26 6 33 14 12 12 11 15 -8 20 -19 6 -20 7 -6 16 12 7 26 5 45
-5 21 -10 31 -11 39 -3 7 7 6 12 -2 15 -19 7 -16 53 3 60 9 3 20 0 24 -8 5 -7
13 -10 17 -5 4 5 2 11 -4 13 -19 7 -16 43 3 43 28 0 44 27 44 74 0 40 3 46 25
52 15 4 32 1 40 -6 13 -11 15 -4 16 46 1 53 2 55 9 24 6 -29 8 -23 8 30 -1 36
2 128 5 205 4 77 9 232 12 345 3 113 10 358 15 545 5 187 11 662 12 1055 2
835 9 1249 19 1200 6 -34 7 -34 15 -10 7 19 10 6 15 -60 5 -80 5 -77 9 55 3
113 5 128 10 80 4 -33 7 -54 8 -47 2 15 42 16 42 0 0 -6 9 -1 20 12 19 22 19
22 -3 41 l-22 18 22 1 c12 0 29 7 37 16 9 8 20 13 25 10 13 -8 42 4 35 15 -3
5 -15 9 -28 9 -29 0 -35 6 -29 31 4 15 14 19 54 19 l49 0 0 39 c0 22 5 42 13
44 8 4 4 12 -12 25 -23 18 -23 21 -9 36 22 22 24 21 33 -16 4 -18 9 -27 12
-20 2 6 15 12 28 12 24 0 35 17 35 56 0 15 -6 24 -16 24 -11 0 -14 5 -10 16 3
9 6 24 6 35 0 10 7 19 15 19 17 0 20 16 5 25 -15 9 -12 25 4 25 8 0 17 6 19
13 7 17 27 -11 27 -39 0 -14 8 -24 22 -27 29 -8 21 -15 -28 -23 -21 -3 -40 -7
-42 -9 -2 -2 25 -7 60 -12 l63 -8 0 -58 c0 -31 3 -57 7 -57 12 0 20 40 19 96
0 41 3 54 14 54 8 0 15 5 15 10 0 6 -7 10 -15 10 -21 0 -19 19 3 26 43 14 66
27 55 31 -21 8 -14 25 7 18 15 -5 18 -3 14 9 -5 12 -2 15 12 10 11 -4 24 -13
31 -21 7 -9 13 -11 18 -4 3 6 15 11 27 11 15 0 19 5 15 19 -3 14 0 17 14 14
27 -7 33 -21 17 -40 -11 -14 -8 -13 15 1 29 20 37 7 11 -18 -14 -15 -13 -16
11 -16 24 0 26 -3 21 -25 -6 -22 -3 -25 21 -25 29 0 63 25 63 47 0 7 -9 13
-20 13 -21 0 -24 8 -14 33 3 9 13 13 25 10 18 -5 20 -2 17 23 -4 39 15 43 25
5 10 -39 42 -42 59 -6 6 14 23 31 38 38 22 12 28 11 41 -2 7 -8 17 -26 20 -41
5 -20 7 -16 8 17 1 32 -2 41 -13 37 -9 -3 -15 4 -18 20 -7 33 7 56 17 27 3
-11 13 -21 21 -21 8 0 13 -4 10 -9 -3 -5 1 -14 9 -21 8 -7 15 -18 15 -24 0 -6
11 -16 25 -23 14 -6 23 -7 20 -3 -3 5 4 11 15 15 32 10 24 22 -19 29 -44 7
-59 22 -42 39 8 8 11 6 11 -6 0 -14 11 -17 75 -17 47 0 75 4 75 11 0 23 30 41
59 34 21 -4 30 -2 34 9 8 20 27 21 27 1z m-1708 -815 c9 -127 1 -270 -15 -270
-7 0 -20 -12 -30 -25 -16 -22 -16 -25 -2 -25 9 0 14 -4 10 -9 -3 -5 4 -12 15
-16 11 -3 20 -12 21 -18 0 -7 2 -21 4 -32 8 -38 5 -260 -3 -295 -12 -54 -63
-66 -259 -62 -72 2 -93 5 -93 16 0 28 -53 30 -63 2 -9 -23 -108 -38 -212 -34
l-100 4 -9 93 c-5 55 -5 124 0 169 8 65 13 78 31 88 13 6 20 14 16 17 -3 4 -1
7 5 7 22 0 12 20 -13 26 -34 8 -38 30 -33 181 4 154 11 168 83 183 181 36 225
39 225 16 0 -8 6 -21 13 -28 8 -7 16 -20 19 -28 4 -12 7 -11 13 5 20 59 45 90
77 98 85 21 226 45 258 44 l35 -2 7 -105z m1814 -100 c35 0 64 -4 64 -8 0 -5
-28 -9 -62 -9 -114 -1 -108 1 -108 -37 0 -47 10 -72 21 -54 6 9 9 4 9 -14 0
-18 5 -28 15 -28 8 0 22 -9 32 -19 23 -25 123 -41 123 -20 0 9 3 10 8 4 4 -6
21 -17 37 -25 17 -8 32 -17 35 -21 11 -12 283 -29 555 -33 160 -3 282 -3 273
0 -10 3 -18 10 -18 15 0 15 27 10 62 -11 35 -21 53 -26 44 -11 -3 5 4 11 17
15 37 10 47 7 40 -11 -5 -15 -3 -14 10 2 l16 20 1 -20 c1 -19 1 -19 14 -2 7 9
21 17 30 17 9 0 16 5 16 11 0 8 14 9 43 5 38 -6 40 -6 22 8 -18 13 -15 14 35
13 l54 -2 9 50 c4 27 6 59 2 72 -5 20 -12 23 -63 24 -31 1 -70 5 -87 8 -18 5
3 6 50 5 44 -2 90 -3 102 -3 18 -1 22 -8 27 -58 3 -32 10 -232 14 -445 4 -212
10 -389 13 -392 3 -3 9 162 13 366 3 205 9 408 13 451 l6 78 101 -5 c56 -3
173 -8 261 -11 88 -3 201 -7 250 -10 50 -3 146 -7 215 -10 318 -13 338 -16
345 -39 3 -11 10 -189 15 -395 6 -206 12 -377 15 -379 3 -3 5 82 5 189 0 205
16 566 25 591 4 11 18 14 53 12 26 -2 109 -6 185 -10 76 -3 136 -8 133 -11 -7
-7 -270 -5 -311 3 l-35 6 0 -38 c0 -22 3 -50 7 -63 5 -21 10 -22 45 -17 27 5
46 2 64 -10 24 -16 118 -24 131 -11 3 3 15 -3 26 -14 12 -11 23 -15 25 -9 6
16 26 12 40 -10 7 -11 20 -20 30 -19 10 0 12 3 5 6 -7 2 -13 9 -13 14 0 5 11
3 25 -3 14 -6 25 -18 25 -27 0 -12 11 -16 43 -18 34 -1 37 0 17 7 -23 7 -24 8
-3 9 12 1 24 -3 27 -7 3 -5 36 -10 73 -11 37 -1 118 -6 178 -11 75 -5 8 -7
-210 -3 l-320 5 5 -213 c3 -118 9 -220 14 -227 4 -7 14 -11 22 -8 8 3 14 -1
14 -8 0 -18 71 -22 358 -21 211 2 212 1 212 -20 0 -29 10 -37 27 -24 9 8 13
44 14 128 1 64 4 148 8 186 6 67 7 70 30 67 32 -3 36 -8 21 -27 -7 -9 -8 -15
-2 -15 6 0 12 5 14 10 2 6 17 8 36 4 26 -5 32 -11 33 -33 l1 -26 8 25 c8 24 8
23 9 -7 3 -85 31 2 31 95 0 60 22 21 24 -41 1 -31 5 -59 9 -63 4 -4 7 -62 8
-128 0 -67 4 -139 8 -161 7 -39 8 -37 14 30 3 39 9 123 13 187 3 65 9 116 14
113 4 -2 10 -32 13 -65 10 -93 16 -108 38 -103 19 5 24 -5 19 -36 -1 -9 4 -12
14 -8 17 7 86 -29 86 -44 0 -5 10 -9 23 -8 21 0 21 1 2 9 -17 7 -17 9 -2 9 13
1 17 10 17 39 0 20 3 55 7 77 l7 40 7 -30 c4 -16 7 -58 8 -92 l1 -61 53 -6
c52 -6 230 -19 402 -31 53 -3 92 -10 97 -18 4 -6 8 -32 9 -57 l2 -45 6 55 c6
51 8 55 37 61 18 3 58 2 90 -2 48 -7 60 -5 70 9 12 16 14 16 31 -1 17 -16 18
-47 21 -408 3 -342 1 -397 -14 -441 -12 -36 -19 -47 -27 -39 -14 14 -47 14
-47 1 0 -5 -5 -10 -10 -10 -6 0 -22 -8 -36 -17 l-26 -16 29 -12 c25 -10 19
-12 -62 -18 -49 -4 -164 -10 -255 -14 l-165 -8 105 -6 c58 -4 155 -7 215 -8
61 -1 135 -4 165 -8 l55 -7 -40 -8 c-22 -5 -59 -8 -82 -8 -47 1 -53 -5 -25
-26 15 -12 15 -12 -6 -7 -12 3 -28 1 -35 -5 -21 -18 -216 -28 -847 -42 -228
-6 -518 -12 -645 -15 -126 -3 -336 -8 -465 -10 -129 -2 -235 -4 -235 -4 0 -3
-933 -3 -1783 -2 -532 1 -882 5 -898 11 l-25 10 7 472 c4 260 11 475 15 476 5
2 10 54 11 115 l2 112 6 -130 c3 -83 8 52 12 370 6 429 9 532 17 554 0 2 15 1
32 -3 17 -3 60 -6 95 -6z m5103 -852 c54 0 86 4 97 13 14 11 18 11 29 -5 7 -9
22 -16 32 -15 27 3 134 -11 160 -21 14 -6 25 -6 28 0 4 6 -2 10 -12 11 -11 0
-13 3 -5 6 7 3 25 -3 39 -13 19 -12 28 -13 31 -6 2 7 10 12 18 12 9 0 12 -5 9
-11 -4 -6 0 -16 9 -22 21 -16 35 -106 41 -267 3 -69 7 -139 10 -157 4 -21 0
-44 -12 -65 -9 -18 -16 -37 -15 -41 1 -4 -6 -10 -15 -13 -10 -3 -27 -10 -38
-14 -11 -5 -37 -14 -58 -20 -22 -7 -51 -18 -65 -26 -15 -8 -33 -14 -39 -14 -7
0 -27 -9 -45 -20 l-33 -20 28 0 c16 0 26 -4 22 -10 -3 -5 -31 -10 -61 -10 -30
0 -68 -7 -84 -15 -17 -9 -30 -12 -30 -9 0 4 -8 0 -18 -9 -19 -17 -69 -40 -92
-41 -8 -1 -16 -11 -18 -23 -5 -31 -20 -29 -29 5 -10 36 -10 779 0 815 6 23 11
26 21 18 8 -6 50 -12 95 -13z m8905 -116 c3 -5 6 -755 7 -1668 l1 -1659 -27
-3 c-15 -2 -39 -1 -53 3 l-25 6 5 1636 c5 1499 7 1636 22 1645 26 15 18 28
-16 28 -25 0 -29 3 -18 10 18 12 97 13 104 2z m-146 -304 c1 32 6 51 12 47 6
-4 10 -540 10 -1537 0 -1394 -1 -1530 -16 -1524 -8 3 -22 6 -31 6 -13 0 -14
173 -11 1518 2 989 6 1522 13 1532 7 11 11 1 16 -40 l6 -55 1 53z m-17907 5
c31 -18 32 -44 3 -90 -8 -12 -11 -29 -8 -38 8 -19 -15 -48 -32 -41 -7 3 -16 2
-18 -3 -3 -4 -19 -6 -35 -3 -30 4 -56 31 -63 67 -2 11 -8 20 -15 20 -6 0 -15
3 -19 8 -4 4 0 7 9 7 9 0 19 -5 22 -10 11 -18 35 9 35 38 0 14 3 22 7 19 3 -4
12 2 20 12 7 11 23 22 36 24 12 2 24 5 25 6 2 0 17 -7 33 -16z m17326 -1275
l-4 -63 -38 -9 c-28 -6 -40 -6 -43 3 -2 6 -21 11 -42 11 l-38 0 5 -40 c4 -26
2 -40 -6 -40 -6 0 -10 3 -10 8 5 30 -3 62 -15 62 -23 0 -28 17 -21 70 l7 49
101 4 c56 1 103 4 105 5 2 1 2 -26 -1 -60z m-6997 4 c0 -9 -297 -18 -850 -26
-212 -3 -257 -2 -160 3 74 5 286 12 470 16 184 4 336 8 338 10 8 7 202 5 202
-3z m81 -98 c8 -10 8 -22 0 -47 -7 -20 -11 -112 -9 -243 1 -116 -2 -216 -6
-222 -4 -7 -13 -12 -19 -12 -9 0 -11 39 -9 152 4 157 -11 298 -32 299 -40 2
-100 10 -107 15 -5 3 -9 18 -9 34 0 25 4 29 33 33 70 8 147 4 158 -9z m1184
-153 l70 -6 0 -37 c0 -34 8 -52 23 -54 4 0 43 -4 87 -8 44 -4 96 -9 115 -11
19 -2 41 -4 48 -4 17 -1 15 -31 -2 -31 -18 0 -150 -153 -171 -197 -19 -39 -52
-45 -60 -10 -3 12 -4 60 -3 107 l3 85 -45 7 c-25 4 -121 16 -215 28 -234 30
-274 39 -160 36 50 -1 97 -5 106 -9 14 -7 15 -2 9 35 -3 24 -10 49 -14 56 -16
26 5 34 73 26 36 -4 98 -10 136 -13z m-1297 -123 l-3 -123 -31 -3 -30 -3 3
118 c2 65 3 121 3 126 0 4 14 7 30 7 l31 0 -3 -122z m6972 -9 c0 -31 27 -42
35 -14 17 54 15 52 26 33 6 -10 9 -59 7 -110 l-3 -93 -36 -3 c-24 -2 -43 3
-59 16 -24 19 -24 19 -11 108 8 49 15 92 18 97 9 15 23 -5 23 -34z m-134 -466
c-27 -279 -28 -292 -40 -309 -7 -9 -18 -12 -29 -8 -13 5 -16 14 -12 43 46 330
79 488 93 450 2 -4 -4 -84 -12 -176z m384 -179 l0 -177 -90 7 c-96 8 -279 32
-285 38 -3 3 14 120 19 125 1 2 29 5 61 7 41 4 63 11 77 25 22 25 32 27 24 5
-3 -9 -2 -12 4 -9 6 4 10 12 9 18 -4 22 13 67 25 67 7 0 27 13 46 30 25 23 37
27 51 20 12 -7 20 -6 26 2 5 9 10 3 14 -17 l7 -30 1 33 c0 17 3 32 6 32 3 0 5
-79 5 -176z m-6321 11 c-1 -11 -1 -53 0 -92 1 -73 14 -94 30 -51 17 46 21 -87
27 -831 4 -416 7 -757 9 -759 1 -1 5 264 9 590 6 520 8 637 16 658 1 3 5 -6 9
-19 7 -25 14 -26 86 -22 12 1 15 16 15 74 0 140 13 288 24 284 7 -2 13 -62 17
-165 7 -171 13 -207 30 -182 8 13 12 11 28 -10 19 -23 20 -24 39 -7 10 9 22
14 27 10 4 -5 5 -3 1 4 -14 25 15 22 55 -5 23 -16 50 -27 59 -25 10 3 29 -7
43 -21 29 -29 57 -34 57 -11 0 10 8 13 33 8 17 -3 49 -7 70 -10 l37 -5 1 -307
c0 -168 0 -390 -1 -492 -1 -123 2 -189 9 -194 8 -4 11 127 11 443 0 247 3 477
6 511 7 67 27 79 32 20 3 -35 24 -59 51 -59 11 0 10 4 -5 16 -10 8 -13 13 -6
9 6 -3 15 1 18 9 5 12 20 16 60 16 30 0 55 -1 56 -2 5 -6 13 -1358 8 -1358 -3
0 -57 14 -120 31 -297 78 -502 129 -520 129 -18 0 -20 -7 -20 -82 0 -46 3 -92
6 -103 6 -23 37 -38 109 -54 28 -6 82 -20 120 -31 62 -18 174 -46 215 -54 8
-2 29 -9 45 -16 17 -7 37 -13 45 -14 38 -5 96 -19 111 -27 9 -4 27 -10 40 -13
137 -27 447 -113 491 -137 10 -5 26 -9 35 -9 22 0 153 -30 173 -40 8 -4 40
-12 70 -19 30 -7 69 -17 87 -22 30 -9 110 -30 166 -43 l27 -6 1 822 c1 688 10
1261 17 1074 2 -38 5 -47 17 -42 10 3 15 -1 15 -13 0 -20 41 -43 57 -33 14 10
15 17 20 240 2 112 7 202 11 200 4 -2 28 -14 53 -26 l47 -22 6 -202 c14 -489
16 -627 17 -1213 0 -348 4 -611 9 -600 5 11 6 255 3 542 -5 468 -4 523 10 529
9 3 92 -10 184 -30 92 -19 283 -58 423 -85 1077 -211 1436 -284 1450 -291 15
-8 16 -62 13 -582 -1 -315 -2 -590 -3 -612 0 -31 -3 -37 -16 -32 -9 3 -111 31
-228 60 -116 30 -265 69 -331 86 -215 56 -565 146 -1068 274 -98 26 -181 46
-185 46 -4 0 -6 -17 -5 -37 1 -21 2 -68 2 -104 l1 -66 38 -16 c20 -9 87 -28
147 -42 142 -34 228 -56 335 -86 19 -6 53 -14 76 -19 22 -5 58 -16 80 -24 21
-8 127 -38 234 -65 107 -28 272 -71 365 -96 94 -25 188 -49 210 -54 77 -18
171 -43 230 -62 33 -10 80 -23 105 -28 59 -13 102 -25 305 -83 94 -28 178 -51
187 -52 10 -1 21 -5 24 -9 4 -4 15 -7 25 -7 10 0 30 -5 46 -12 36 -15 31 -13
78 -22 22 -4 49 -11 60 -16 21 -9 45 -14 129 -30 27 -5 51 -11 54 -14 2 -3 13
-1 24 5 18 10 19 34 17 862 -2 873 7 1431 22 1421 5 -3 9 10 9 29 0 30 3 34
20 30 16 -4 20 -14 22 -47 l1 -41 7 45 c7 45 7 44 10 -20 2 -51 4 -59 10 -35
7 30 13 25 23 -20 3 -11 5 75 6 192 1 125 5 214 11 218 15 9 57 -23 68 -53 13
-33 22 -912 22 -2132 1 -481 1 -880 0 -887 0 -6 -22 -18 -50 -26 -46 -14 -55
-13 -115 5 l-64 20 -3 106 -3 106 -65 17 c-58 15 -336 89 -465 124 -27 7 -115
31 -195 54 -394 109 -561 155 -1130 311 -338 93 -680 187 -759 209 -90 26
-148 38 -155 32 -6 -5 -87 -19 -181 -32 l-170 -22 -80 24 -80 25 -3 77 -3 76
-52 15 c-29 8 -81 22 -117 32 -36 10 -67 20 -70 23 -3 3 -14 7 -25 7 -11 1
-63 13 -115 28 -128 36 -336 93 -440 121 -47 12 -209 57 -360 100 -151 42
-336 94 -411 115 l-135 37 -105 -14 c-152 -20 -248 -21 -284 -3 -27 14 -30 20
-33 72 l-3 57 -54 16 c-30 8 -68 18 -85 22 -22 4 -27 8 -19 14 8 5 0 8 -21 7
-46 -1 -171 33 -164 44 3 5 -5 6 -18 3 -17 -4 -29 -1 -39 11 -13 16 -12 16 9
5 12 -6 22 -8 22 -3 0 13 -34 21 -51 12 -21 -12 -65 -1 -85 21 -13 15 -14 19
-3 16 8 -2 11 -2 7 0 -14 8 -9 33 7 39 24 10 17 24 -11 24 -23 0 -25 -3 -19
-28 6 -30 -17 -64 -29 -43 -4 6 -12 8 -19 6 -7 -3 -18 7 -24 22 -11 22 -10 28
5 39 16 13 16 13 -2 14 -30 0 -11 12 34 20 22 4 40 3 40 -1 0 -5 7 -9 15 -9 8
0 15 4 15 9 0 4 17 4 38 -2 21 -6 39 -15 39 -21 0 -6 3 -24 7 -40 5 -21 4 -26
-6 -21 -7 4 -2 -3 12 -14 14 -11 32 -20 40 -20 12 0 12 2 1 6 -11 5 -11 7 0
15 10 6 7 7 -8 3 -14 -4 -23 -2 -23 4 0 6 3 10 8 10 27 -4 44 2 38 16 -9 24
40 18 98 -12 32 -17 69 -27 100 -28 35 -1 53 -7 62 -20 8 -10 14 -14 14 -8 0
7 15 13 33 15 31 3 32 5 38 58 3 30 6 332 8 672 3 642 7 718 44 724 10 1 18
-5 19 -14 4 -42 16 211 17 378 2 133 5 178 12 160 5 -13 9 -33 8 -45z m1215
-317 c3 -13 7 -112 10 -222 4 -180 11 -233 23 -198 3 6 13 12 24 12 10 0 19
-6 20 -12 0 -7 5 -2 11 12 10 22 12 23 16 6 3 -15 6 -16 13 -5 8 11 12 10 21
-6 13 -20 14 -25 17 -47 1 -8 8 -5 19 8 10 11 23 19 30 16 7 -2 21 7 32 20 14
16 19 19 20 8 0 -16 43 -40 70 -40 8 0 26 -7 39 -16 18 -13 22 -23 17 -45 -7
-34 4 -38 23 -7 12 19 14 20 23 5 11 -21 32 -22 48 -2 20 24 40 18 41 -12 1
-17 3 -21 6 -10 6 24 19 21 29 -5 4 -13 9 -236 11 -495 3 -282 8 -473 14 -473
7 0 17 954 10 1008 -1 6 3 12 8 12 9 0 27 -83 23 -106 -1 -6 5 -11 13 -11 8 0
15 6 15 14 0 17 15 17 30 -2 7 -9 29 -15 51 -15 34 0 41 4 51 28 l11 27 8 -40
c10 -51 12 -1335 2 -1335 -5 0 -60 14 -123 31 -103 27 -613 158 -828 212 l-83
21 5 656 c2 360 5 665 6 677 1 12 10 24 19 25 21 5 71 -31 65 -47 -3 -6 2 -17
10 -24 13 -11 21 -9 46 9 21 15 30 18 32 8 3 -31 15 147 17 253 0 64 4 119 8
122 12 13 23 7 27 -15z m1376 -397 c0 -163 2 -190 16 -195 9 -3 21 -3 27 1 7
4 21 6 32 5 17 -2 17 -1 5 7 -11 8 0 10 40 9 30 0 45 -3 33 -5 -26 -5 -31 -23
-7 -23 8 0 13 -4 10 -9 -9 -14 95 -22 112 -9 10 9 15 9 22 -1 4 -8 13 -10 19
-7 6 4 23 -2 37 -13 27 -22 60 -29 49 -11 -11 17 7 11 20 -7 10 -14 29 -17
100 -17 53 0 80 -3 69 -8 -12 -5 -3 -7 24 -4 36 4 42 2 38 -11 -5 -13 0 -15
28 -10 18 3 51 -1 72 -8 22 -8 50 -14 64 -13 17 0 19 2 8 5 -10 2 -18 9 -18
15 0 6 7 7 18 3 9 -4 26 -10 37 -13 11 -2 27 -11 36 -18 13 -12 20 -12 45 0
19 10 44 13 73 9 38 -5 41 -7 23 -14 -25 -10 -29 -24 -8 -32 10 -4 13 -1 9 9
-3 10 2 14 18 14 20 0 21 -2 9 -11 -12 -8 -10 -9 8 -4 15 4 30 1 40 -8 9 -8
28 -18 42 -21 19 -6 21 -5 10 3 -12 9 -11 11 8 11 12 0 25 -7 28 -15 4 -8 12
-15 20 -15 8 0 11 6 8 15 -8 21 2 19 26 -5 11 -11 26 -20 33 -20 9 0 9 2 0 8
-9 6 -7 11 7 20 17 10 20 10 20 -3 0 -16 34 -38 44 -28 3 3 6 2 6 -3 0 -5 20
-9 45 -9 30 0 45 -4 45 -12 0 -7 5 -13 10 -13 6 0 8 -11 4 -25 -4 -15 -2 -25
5 -25 6 0 11 1 12 3 0 1 2 63 5 137 3 74 8 137 10 139 4 5 9 -207 5 -247 -1
-17 2 -22 11 -16 7 5 23 7 35 6 14 -2 23 4 28 17 9 29 25 26 25 -4 0 -24 1
-24 20 -8 11 10 20 23 20 30 0 7 5 13 10 13 6 0 10 -12 10 -26 0 -16 5 -24 13
-21 6 2 25 -7 40 -19 44 -37 57 -32 58 24 1 26 2 56 3 67 1 11 4 137 6 280 l4
260 7 -225 c11 -360 10 -800 -1 -800 -5 0 -29 5 -52 10 -53 13 -1314 264
-1453 290 -55 10 -158 29 -230 44 -71 14 -173 34 -225 44 l-95 18 -3 180 c-1
104 2 187 7 199 6 11 12 31 14 45 4 20 5 19 6 -7 1 -32 22 -45 36 -23 4 6 11
8 16 4 5 -3 7 -9 4 -13 -2 -5 4 -16 15 -26 12 -10 20 -13 20 -7 0 27 31 10 37
-20 l6 -31 19 22 c11 14 18 18 18 10 1 -9 4 -8 11 4 5 9 13 96 16 192 6 165 7
174 25 164 16 -9 18 -25 18 -198z m-11622 -16 c17 -4 32 -14 32 -21 0 -9 11
-14 28 -14 24 0 32 -7 46 -38 18 -40 51 -77 126 -139 29 -24 45 -46 45 -61 0
-12 3 -22 8 -22 4 0 16 0 27 0 11 0 19 4 18 9 -2 5 0 9 5 10 4 0 17 9 28 20
15 14 19 26 14 42 -6 18 -4 21 9 16 9 -4 20 1 26 11 8 13 9 8 4 -20 -7 -41 2
-51 14 -17 7 19 11 16 37 -25 16 -25 35 -46 42 -46 9 0 13 -15 13 -46 l0 -45
153 5 c244 8 169 -1 -308 -39 -175 -14 -320 -31 -334 -39 -4 -3 -65 -7 -136
-11 -72 -3 -169 -10 -216 -16 -47 -6 -97 -9 -110 -7 -54 6 -618 -21 -854 -42
-480 -42 -496 -43 -520 -21 -11 10 -87 69 -170 131 -189 143 -221 170 -217
188 2 9 -3 12 -16 8 -11 -4 -24 0 -31 8 -7 8 -28 20 -47 26 -19 6 -34 18 -34
26 0 20 14 17 35 -6 10 -11 24 -20 30 -20 7 0 17 -6 23 -13 6 -7 26 -12 45
-12 25 1 34 -2 30 -12 -3 -7 1 -13 8 -13 12 0 12 -2 1 -9 -10 -6 -2 -11 24
-16 53 -9 58 -14 37 -32 -16 -13 -16 -14 -1 -9 10 3 20 1 23 -3 6 -11 48 -2
57 13 5 8 11 7 20 -2 6 -6 22 -12 35 -12 45 0 153 -25 153 -35 0 -5 23 -11 51
-12 28 -1 57 -7 65 -14 8 -6 21 -8 30 -5 10 4 23 -2 34 -14 9 -11 20 -17 23
-14 3 3 20 3 37 -1 35 -8 105 -71 87 -79 -7 -2 -4 -5 6 -5 9 -1 17 5 17 13 0
15 27 29 41 21 4 -3 12 6 15 22 7 26 7 26 15 5 6 -17 16 -22 43 -22 40 0 57
-16 24 -23 -18 -3 -17 -5 7 -6 21 -1 26 -4 16 -10 -22 -14 1 -18 74 -11 39 4
55 8 38 8 -45 3 -40 24 7 37 51 13 71 36 25 27 -14 -2 -25 0 -25 6 0 13 30 25
57 23 12 -1 30 7 40 18 9 11 20 17 23 12 3 -5 17 -7 33 -4 20 4 27 11 27 28 0
30 10 55 21 55 5 0 9 -7 9 -15 0 -8 5 -15 10 -15 6 0 10 5 10 10 0 6 6 10 14
10 7 0 19 7 26 15 7 9 15 13 18 10 5 -5 39 14 70 39 30 25 132 130 132 137 0
4 -3 9 -7 12 -5 2 -2 2 5 0 7 -1 24 8 38 22 14 14 29 25 34 25 5 0 13 6 17 14
8 14 57 19 323 35 133 8 215 7 268 -4z m15318 -30 c153 -19 285 -37 292 -40 9
-3 12 -237 12 -1124 0 -736 3 -1122 10 -1126 6 -3 10 -11 10 -18 0 -7 -5 -6
-14 3 -14 15 -23 656 -27 1848 -1 213 -6 362 -11 362 -5 0 -6 5 -3 10 3 6 0
10 -7 10 -9 0 -9 3 2 10 12 8 11 10 -7 10 -15 0 -21 -5 -17 -14 4 -11 0 -13
-16 -9 -16 4 -18 8 -9 14 8 4 11 10 9 12 -3 2 -63 12 -135 21 -149 20 -408 63
-384 65 8 1 141 -15 295 -34z m-1535 -243 c2 -179 4 -239 7 -272 2 -20 56 -40
104 -40 20 0 43 -7 51 -15 24 -23 29 -156 31 -726 1 -368 4 -523 12 -526 8 -3
9 26 6 92 -2 53 -1 437 4 853 5 416 10 675 12 575 1 -101 6 -183 11 -183 5 0
6 -20 3 -45 -4 -36 -2 -45 11 -45 8 0 18 -6 21 -12 3 -10 9 -8 19 5 8 9 19 17
25 17 16 0 24 -37 13 -59 -7 -13 -8 -22 -1 -26 14 -8 30 3 30 21 0 8 5 14 10
14 7 0 7 -7 0 -21 -12 -21 -4 -42 8 -23 12 18 51 14 62 -7 6 -11 8 -24 5 -29
-3 -6 1 -10 9 -10 18 0 21 16 6 25 -17 10 -11 25 9 25 11 0 23 -9 26 -20 7
-22 25 -27 25 -7 0 14 26 -32 29 -53 7 -44 10 -1590 3 -1594 -7 -4 -157 32
-582 139 -102 26 -189 48 -195 50 -93 21 -105 27 -106 59 0 17 -1 369 -1 781
-1 721 4 895 23 895 5 0 9 -7 9 -16 0 -10 6 -14 15 -10 10 3 15 -1 15 -14 0
-30 19 -34 30 -5 12 30 30 28 88 -11 l35 -24 17 37 17 38 8 -43 c5 -31 10 -41
18 -33 6 6 12 85 14 203 4 218 7 240 27 232 12 -4 15 -42 17 -192z m-16437
-3046 c-3 -7 1 -13 8 -13 55 -4 68 -9 68 -25 0 -10 5 -18 10 -18 6 0 10 -17
10 -38 0 -36 6 -47 51 -101 9 -10 9 -15 -1 -21 -10 -6 -9 -12 4 -26 14 -14 17
-28 13 -63 -3 -25 -10 -47 -16 -49 -7 -2 -8 -14 -5 -30 6 -24 4 -23 -20 11
-14 21 -26 45 -26 53 0 8 -4 12 -10 9 -6 -4 -7 1 -3 11 4 12 3 15 -5 10 -7 -4
-12 -2 -12 3 0 19 -3 25 -23 46 -36 39 -59 95 -52 131 5 31 9 34 33 29 25 -5
25 -4 -5 12 -29 14 -33 22 -33 55 0 23 4 37 10 33 5 -3 7 -11 4 -19z"/>
<path d="M14199 6143 c-1 -10 -1 -21 0 -25 0 -5 -4 -8 -10 -8 -8 0 -8 -4 -1
-13 6 -7 8 -23 5 -36 -4 -17 -8 -19 -14 -9 -5 7 -12 13 -16 14 -4 0 -28 3 -53
7 -145 20 -545 50 -495 37 25 -6 26 -8 7 -9 -13 0 -30 -8 -39 -16 -20 -20 -24
-63 -6 -69 9 -4 13 -20 12 -53 -5 -104 1 -172 16 -187 8 -8 15 -19 15 -24 0
-6 10 -10 23 -11 12 0 45 -3 72 -6 35 -3 44 -2 30 4 -17 8 -14 9 12 8 24 -2
33 -7 33 -20 0 -14 4 -16 19 -8 16 9 18 8 14 -9 -3 -11 -12 -20 -21 -20 -32 0
-5 -8 52 -15 41 -5 56 -3 52 4 -4 6 0 11 9 11 9 0 14 -4 11 -9 -12 -18 79 -30
118 -15 29 11 17 20 -20 16 -33 -4 -35 -3 -25 15 6 11 7 24 3 28 -4 5 -1 5 6
1 6 -4 12 -2 12 3 0 6 -5 11 -11 11 -5 0 -7 4 -4 10 4 6 11 5 19 -2 14 -14 17
-38 4 -38 -4 0 -8 -5 -8 -12 0 -9 3 -9 12 0 7 7 22 12 35 12 18 0 23 -6 23
-25 0 -17 -6 -25 -17 -25 -9 0 -14 -3 -10 -6 11 -11 67 7 67 22 0 8 10 14 24
14 19 0 25 -7 30 -35 4 -21 13 -35 21 -35 8 0 15 5 15 10 0 6 -5 10 -10 10 -7
0 -7 6 0 19 14 27 13 66 -3 80 -10 8 -22 7 -45 -1 -38 -15 -42 -11 -49 41 -3
22 -12 42 -19 45 -11 4 -14 -7 -14 -49 0 -38 -4 -55 -13 -55 -22 0 -33 34 -32
100 1 51 7 74 26 103 23 35 27 37 71 34 36 -2 48 1 52 13 2 8 4 -6 5 -32 0
-26 6 -50 11 -53 7 -4 10 40 9 134 0 78 -3 141 -5 141 -2 0 -5 -8 -5 -17z"/>
<path d="M14256 6028 c-8 -30 -8 -88 1 -129 5 -28 7 -30 14 -14 7 19 8 18 8
-2 1 -17 7 -23 25 -23 19 0 23 -4 19 -18 -3 -12 7 -30 26 -50 30 -30 40 -52
22 -52 -4 0 -8 -18 -8 -40 0 -33 2 -38 13 -29 8 6 21 9 29 5 9 -3 15 0 15 10
0 19 26 29 43 17 6 -5 29 -9 50 -7 35 2 37 0 37 -26 0 -41 18 -47 22 -8 3 28
7 33 32 35 34 2 41 8 31 23 -5 8 -23 11 -50 7 -35 -3 -44 -1 -48 13 -3 10 -18
21 -36 25 -53 11 -34 25 27 19 31 -3 62 -7 68 -9 17 -5 94 16 89 25 -2 4 -26
10 -52 13 -27 3 -52 12 -59 22 -7 9 -15 12 -18 7 -3 -6 -16 -8 -28 -4 -30 8
-89 48 -81 56 4 3 -5 6 -18 6 -27 0 -52 31 -43 55 5 11 -1 15 -20 15 -16 0
-26 6 -26 15 0 8 -3 15 -7 16 -43 4 -68 23 -57 41 3 4 1 8 -4 8 -5 0 -12 -10
-16 -22z"/>
<path d="M6220 5935 c-6 -8 -14 -40 -17 -72 -7 -73 6 -87 84 -87 69 -1 82 13
75 86 -4 53 -26 93 -44 82 -5 -3 -2 -14 8 -25 21 -23 12 -58 -11 -39 -8 7 -15
20 -15 30 0 9 -11 22 -25 28 -33 15 -40 15 -55 -3z"/>
<path d="M12090 5778 c0 -14 27 -18 434 -63 76 -9 166 -13 200 -10 135 13 146
15 146 34 0 16 -5 17 -37 10 -124 -27 -198 -30 -328 -14 -331 40 -381 46 -397
51 -11 3 -18 0 -18 -8z"/>
<path d="M13216 5711 c-8 -12 -5 -13 74 -16 76 -4 214 -17 219 -21 2 -2 -2
-10 -9 -19 -18 -22 4 -71 38 -83 26 -10 282 -32 432 -38 41 -2 118 -5 170 -8
104 -5 217 -8 240 -7 8 1 10 4 5 10 -6 5 -49 14 -97 20 -47 6 -113 20 -146 31
-47 16 -306 55 -382 59 -42 1 -230 28 -235 32 -3 3 13 11 35 18 56 17 51 32
-7 23 -62 -9 -159 -9 -254 2 -54 6 -78 5 -83 -3z"/>
<path d="M10096 6785 c-13 -14 -16 -39 -15 -141 l0 -124 30 0 c29 0 29 1 28
48 -1 44 6 133 17 194 2 15 0 30 -6 33 -6 4 -7 -1 -3 -12 6 -17 6 -17 -14 0
-19 17 -22 17 -37 2z"/>
<path d="M10270 6790 c-1 -8 -2 -19 -1 -24 1 -5 -4 -13 -11 -17 -10 -7 -8 -9
5 -9 17 0 18 -9 16 -103 -3 -104 2 -127 26 -127 22 0 25 11 31 146 5 91 4 125
-4 120 -6 -4 -9 -13 -5 -21 3 -8 1 -15 -5 -15 -5 0 -13 12 -17 27 -5 20 -9 23
-15 14 -6 -11 -9 -10 -13 5 -3 13 -5 14 -7 4z"/>
<path d="M9804 6738 c-34 -53 -73 -408 -47 -430 7 -5 16 -7 21 -4 17 10 45
144 38 184 -15 89 -18 165 -7 208 12 47 10 66 -5 42z"/>
<path d="M6470 8867 c0 -55 8 -68 37 -61 22 6 24 4 19 -14 -7 -20 -6 -20 23
-6 21 10 36 12 47 6 10 -6 30 -6 49 -1 21 6 43 6 60 -1 14 -5 45 -10 69 -10
23 0 47 -5 53 -11 7 -7 16 -3 29 14 11 13 29 29 41 35 18 10 20 9 17 -6 -3
-10 3 -22 15 -29 26 -16 84 -6 77 13 -3 8 -1 14 4 14 6 0 10 -5 10 -10 0 -7 6
-7 19 0 11 5 22 10 25 10 12 0 6 -28 -6 -33 -7 -3 14 -2 47 1 33 3 62 8 65 12
9 12 40 20 40 10 0 -14 62 -28 82 -19 9 5 61 5 115 0 54 -4 102 -4 107 0 5 4
21 -1 35 -12 l25 -20 11 43 c6 24 9 46 6 49 -3 4 -123 12 -266 18 -399 18
-630 29 -747 37 l-108 6 0 -35z"/>
<path d="M5120 8711 c0 -22 35 -30 143 -33 82 -2 118 -7 121 -15 3 -7 1 -13
-4 -13 -6 0 -10 -4 -10 -10 0 -5 16 -10 35 -10 24 0 37 -6 45 -20 6 -11 19
-20 29 -20 10 0 24 -7 32 -16 11 -14 13 -14 21 0 5 8 15 13 23 10 10 -4 15 0
15 15 0 12 5 21 10 21 6 0 10 -9 10 -20 0 -22 40 -29 40 -7 1 12 25 -15 34
-37 2 -6 10 -2 19 10 12 16 26 21 56 20 23 -1 41 2 41 5 0 11 68 31 80 24 11
-7 40 11 40 25 0 5 -10 6 -22 2 -15 -4 -19 -2 -13 7 5 9 38 12 124 9 l116 -4
3 -239 c1 -132 6 -251 9 -265 8 -25 21 466 15 507 -5 28 -25 30 -507 43 -209
6 -408 12 -442 15 -35 2 -63 0 -63 -4z"/>
<path d="M6696 8651 c7 -8 120 -15 333 -21 178 -5 325 -11 326 -12 2 -2 6 -84
9 -182 4 -99 9 -182 11 -185 3 -2 5 80 5 182 0 103 1 190 3 195 3 10 -130 19
-433 27 -195 5 -262 4 -254 -4z"/>
<path d="M7937 8108 c-3 -12 -4 -25 -1 -30 6 -10 185 -11 302 -1 78 6 103 16
65 26 -10 3 -2 6 17 7 19 1 46 6 60 11 18 6 10 7 -30 5 -30 -2 -70 -9 -87 -17
-29 -12 -36 -11 -62 4 -23 13 -53 17 -144 17 -109 0 -115 -1 -120 -22z"/>
<path d="M15240 3830 c-12 -7 -12 -12 -3 -21 7 -7 18 -14 25 -14 7 -1 38 -5
68 -9 30 -4 86 -16 125 -26 38 -11 96 -21 127 -22 32 -2 58 -4 58 -6 0 -1 -12
-7 -27 -13 -18 -6 -36 -6 -55 0 -16 6 -68 15 -116 21 -48 6 -107 18 -132 25
-70 22 -122 26 -116 8 3 -8 6 -19 6 -24 0 -5 5 -9 11 -9 5 0 7 5 4 10 -4 7 2
9 17 6 12 -3 41 -7 63 -11 46 -6 217 -43 255 -54 51 -15 117 18 104 53 -7 18
-12 19 -129 35 -129 18 -255 44 -255 53 0 11 -11 10 -30 -2z"/>
<path d="M14710 3801 c0 -6 3 -11 6 -11 3 0 107 -22 232 -50 257 -56 751 -161
1012 -215 96 -20 183 -39 193 -41 15 -5 17 -24 17 -215 0 -138 3 -208 10 -204
6 4 10 87 10 215 0 209 0 210 -22 214 -60 12 -228 48 -373 80 -205 46 -577
125 -635 135 -91 17 -432 91 -441 96 -5 4 -9 1 -9 -4z"/>
<path d="M294 8141 c4 -6 -5 -13 -21 -16 -62 -13 -137 -38 -150 -50 -7 -8 -13
-22 -13 -32 0 -16 8 -19 52 -20 29 0 54 -5 55 -10 2 -5 17 -7 34 -5 40 6 65
-18 67 -64 1 -37 -23 -59 -38 -34 -12 19 -78 40 -84 26 -3 -6 -15 0 -30 17
-26 28 -54 33 -129 21 -33 -6 -37 -10 -37 -37 0 -24 3 -28 12 -19 7 7 20 12
29 12 20 0 42 -24 31 -34 -4 -4 -7 -19 -7 -32 -1 -17 5 -24 17 -24 10 0 18 -4
18 -9 0 -5 9 -11 20 -14 12 -3 20 -14 20 -26 0 -13 5 -19 14 -15 8 3 17 1 21
-5 3 -6 13 -11 22 -11 9 0 25 -10 36 -22 l20 -23 -6 23 c-3 12 -2 22 2 22 4 0
15 -31 25 -69 14 -52 25 -74 47 -90 15 -11 32 -21 36 -21 4 0 22 20 40 43 30
41 34 42 78 39 l47 -4 -17 26 c-10 15 -20 24 -23 21 -3 -2 -11 3 -18 13 -12
16 -13 15 -15 -8 -1 -14 -1 -28 -1 -31 1 -3 -10 -5 -24 -3 -14 1 -22 -2 -18
-8 4 -6 -5 -8 -22 -6 -21 2 -28 8 -26 21 2 9 -2 17 -8 17 -14 0 -13 57 2 66 7
5 9 2 4 -7 -4 -8 0 -5 8 5 9 11 16 26 16 33 0 7 11 13 24 13 33 0 50 24 41 57
-6 27 -6 27 9 8 12 -15 15 -16 16 -5 0 13 2 13 9 1 8 -12 11 -9 16 11 9 37 -4
57 -22 33 -7 -11 -13 -14 -13 -8 0 7 5 15 10 18 6 3 10 15 10 26 0 27 32 21
40 -6 5 -20 6 -20 22 -3 17 17 16 18 -3 29 -12 6 -33 9 -48 6 -25 -5 -26 -4
-29 51 -2 31 -4 57 -5 58 -1 1 -17 4 -35 7 -28 5 -31 3 -21 -9 10 -12 10 -15
-2 -12 -7 2 -22 13 -32 26 -19 23 -84 62 -73 43z"/>
<path d="M496 7307 c-16 -18 -34 -43 -39 -57 -12 -25 -56 -91 -69 -100 -14
-11 203 -1 220 10 12 8 13 10 2 7 -9 -3 -25 2 -35 10 -19 14 -19 15 5 9 21 -5
20 -3 -5 8 -17 8 -39 24 -50 36 l-20 23 25 -13 c24 -13 24 -13 8 11 -9 13 -23
23 -33 21 -14 -3 -15 0 -5 17 12 24 30 28 30 7 0 -22 17 -28 22 -8 3 9 -3 25
-12 34 -15 16 -18 15 -44 -15z"/>
<path d="M11431 4729 c8 -5 22 -9 32 -9 18 0 24 -25 7 -35 -5 -3 -7 -12 -4
-20 5 -12 10 -13 33 -1 33 18 83 10 79 -12 -4 -22 -112 -27 -132 -6 -16 15
-30 19 -22 6 7 -12 -143 14 -171 29 -12 6 -33 9 -47 5 l-25 -6 5 -213 c6 -236
8 -252 30 -223 8 11 14 28 14 38 0 10 7 18 15 18 8 0 16 7 17 15 0 8 1 21 2
28 1 6 -7 11 -16 9 -17 -3 -34 30 -24 47 4 5 -1 17 -10 25 -8 9 -11 16 -5 16
6 0 11 18 11 40 0 33 3 40 20 40 11 0 20 -4 20 -9 0 -5 10 -9 23 -9 27 1 76
-7 138 -21 25 -6 64 -13 85 -17 22 -3 54 -8 71 -11 18 -3 30 -10 27 -15 -4 -6
1 -8 13 -4 11 3 41 -1 69 -9 27 -8 64 -15 82 -15 27 0 32 -4 32 -25 1 -14 1
-80 1 -147 1 -135 7 -188 20 -188 5 0 9 85 9 190 l0 189 -60 13 c-40 8 -56 15
-47 21 8 6 6 7 -6 3 -15 -5 -150 16 -201 31 -19 5 -19 6 3 24 13 11 20 19 16
19 -3 0 1 7 10 16 9 9 25 14 35 11 11 -3 18 -1 14 4 -3 5 -12 9 -21 9 -9 0
-13 3 -10 6 3 4 2 15 -4 25 -7 14 -6 17 4 13 8 -3 20 2 27 11 7 8 17 15 22 15
5 0 0 -10 -12 -22 -11 -12 -20 -27 -20 -32 0 -6 5 -3 11 7 7 11 22 17 49 17
50 0 51 13 3 34 -35 15 -36 16 -7 11 16 -3 41 -2 55 4 23 8 23 9 5 17 -11 4
-34 8 -52 8 -18 1 -30 3 -28 6 6 5 -110 31 -160 35 -26 2 -34 0 -25 -6z"/>
<path d="M10385 4421 c-10 -9 -204 -26 -262 -23 -23 1 -35 -4 -43 -17 -14 -27
-14 -27 20 -41 21 -9 53 -11 103 -6 40 4 101 9 137 12 84 7 110 12 110 24 0 5
-10 7 -22 4 -13 -2 -80 -8 -150 -13 -70 -5 -131 -12 -135 -14 -5 -3 -19 1 -33
8 -22 12 -20 13 26 11 27 -1 69 2 94 7 25 4 77 9 115 10 62 2 70 4 70 21 0 22
-16 31 -30 17z"/>
<path d="M8880 4300 c0 -7 -94 -16 -264 -25 -75 -3 -97 -15 -80 -42 17 -28 71
-36 154 -24 41 6 111 14 155 16 45 3 85 11 93 18 10 11 2 12 -45 5 -92 -12
-305 -26 -325 -20 -36 9 -17 17 45 18 34 0 113 5 176 10 101 8 115 11 121 29
6 16 4 21 -11 22 -10 1 -19 -2 -19 -7z"/>
<path d="M5580 4174 c-14 -1 -101 -8 -195 -14 -93 -6 -244 -17 -335 -25 -91
-8 -300 -24 -465 -35 -165 -11 -327 -22 -360 -25 -33 -3 -115 -9 -183 -15 -67
-5 -127 -12 -132 -15 -6 -4 -9 -90 -8 -228 l3 -222 2 217 3 217 33 5 c17 3
102 10 187 16 143 10 441 33 585 45 33 3 150 12 260 20 110 8 286 22 390 30
276 22 263 23 268 -22 3 -35 4 -34 5 10 2 50 5 48 -58 41z"/>
<path d="M4940 4001 c-15 -9 -55 -13 -258 -27 -96 -7 -103 -9 -108 -30 -3 -13
-3 -27 0 -32 10 -17 110 -23 182 -12 60 10 144 18 210 19 11 1 29 8 40 16 17
13 15 14 -31 10 -27 -3 -63 -7 -80 -10 -16 -2 -75 -7 -130 -11 -55 -3 -103 -8
-106 -10 -10 -6 -69 7 -69 15 0 3 35 7 78 9 42 1 101 7 131 12 30 6 81 10 113
10 51 0 58 2 58 20 0 23 10 25 30 8 12 -11 12 -10 1 5 -15 18 -37 21 -61 8z"/>
<path d="M2937 3834 c-10 -10 -226 -33 -309 -34 -64 0 -82 -4 -98 -20 -11 -11
-20 -26 -20 -34 0 -8 -3 -22 -7 -31 -5 -15 -3 -16 16 -6 14 8 33 9 54 4 17 -5
61 -5 97 -1 36 5 107 10 159 13 92 4 161 19 161 34 0 8 -93 5 -118 -4 -7 -3
-54 -7 -105 -10 -51 -3 -113 -8 -139 -10 -25 -3 -49 -1 -52 4 -8 13 21 22 48
15 12 -3 63 2 112 10 49 9 118 16 153 16 58 0 63 2 58 20 -6 23 12 27 32 8 11
-10 12 -10 7 -1 -9 17 -42 34 -49 27z"/>
<path d="M6993 3509 c-11 -10 -189 -30 -291 -32 -68 -2 -87 -5 -96 -19 -29
-46 67 -69 208 -50 44 6 114 14 154 17 75 6 102 12 102 24 0 8 -87 4 -110 -5
-22 -9 -296 -23 -320 -17 -37 10 -20 18 33 15 28 -1 95 5 147 13 52 8 120 16
150 17 48 3 55 6 56 24 1 20 -18 28 -33 13z"/>
<path d="M3110 3309 c-90 -9 -377 -36 -470 -44 -30 -3 -176 -17 -325 -30 -148
-14 -330 -31 -403 -37 l-133 -12 2 -243 c0 -149 5 -243 11 -243 5 0 9 37 8 88
-1 48 -1 153 -1 234 1 145 1 148 24 152 12 2 105 12 207 21 187 16 389 35 850
80 140 13 291 27 335 31 44 4 82 8 84 10 7 6 -96 2 -189 -7z"/>
<path d="M11985 2614 c-85 -12 -143 -20 -330 -45 -160 -22 -165 -23 -156 -38
6 -10 13 -11 29 -2 30 16 87 13 171 -9 83 -22 131 -26 131 -9 0 5 5 7 10 4 12
-8 242 25 254 36 5 5 3 11 -7 14 -14 6 -13 9 4 26 10 10 19 24 19 29 0 12 -10
12 -125 -6z"/>
<path d="M10981 2243 l-1 -343 -22 -5 c-13 -2 -36 -6 -53 -7 l-30 -3 4 -242 4
-241 -54 -11 c-50 -10 -1489 -250 -2254 -376 -342 -56 -956 -158 -2750 -455
-2443 -404 -2808 -465 -3075 -510 l-285 -49 560 3 c502 2 565 4 610 20 28 9
95 24 150 32 55 8 132 21 170 29 39 8 205 37 370 64 165 28 338 57 385 66 47
8 191 33 320 55 129 23 282 50 340 60 58 11 164 29 235 40 72 11 164 26 205
34 41 7 185 32 320 55 135 22 295 50 355 61 61 10 155 27 210 36 55 9 116 21
135 25 33 8 32 8 -10 5 -51 -5 -994 -163 -1510 -255 -63 -11 -266 -45 -450
-76 -184 -31 -390 -65 -458 -76 -68 -12 -126 -18 -129 -15 -4 3 -1 6 5 6 6 0
91 14 189 31 182 31 273 47 1103 188 477 81 860 147 1130 195 172 30 876 149
1040 176 63 11 194 33 290 50 403 71 518 92 570 100 95 15 290 50 415 75 66
13 152 28 190 34 106 16 123 19 215 37 47 9 100 16 118 16 17 0 32 4 32 9 0 5
10 8 23 8 23 -1 186 23 272 40 28 5 70 12 95 16 25 4 79 13 120 22 41 8 89 16
105 18 31 3 117 17 220 35 33 6 78 13 100 16 22 3 67 11 100 19 33 8 101 19
150 26 50 6 100 18 113 26 13 8 31 11 41 8 10 -3 31 1 47 10 16 8 43 15 59 16
17 0 48 4 70 9 37 8 36 8 -20 7 l-60 -2 -1 315 c-4 710 -6 837 -14 875 -4 24
-8 -96 -9 -302z"/>
<path d="M11955 2510 c-66 -10 -165 -25 -220 -33 -55 -9 -185 -28 -290 -42
-251 -34 -255 -35 -255 -51 0 -12 5 -12 30 1 18 9 51 14 87 13 75 -2 183 10
199 23 6 5 48 11 92 12 44 1 78 5 75 10 -2 4 3 7 11 7 8 0 18 -4 21 -10 10
-16 35 -12 35 6 0 12 6 15 21 11 12 -3 33 -1 48 4 16 7 54 8 101 3 48 -5 63
-10 43 -12 -18 -2 -33 -8 -33 -14 0 -7 13 -8 35 -5 35 6 50 -8 18 -16 -14 -4
-14 -5 3 -6 12 0 27 6 34 14 10 12 10 15 -4 15 -27 0 -19 39 9 46 14 3 25 11
25 16 0 6 14 8 36 3 23 -4 34 -3 30 4 -3 5 0 12 6 14 23 10 -35 5 -157 -13z"/>
<path d="M4027 2339 c-18 -11 -23 -54 -7 -64 17 -10 13 -264 -4 -281 -32 -31
14 -80 63 -67 20 5 21 11 21 185 0 103 -4 187 -10 198 -15 28 -42 40 -63 29z"/>
<path d="M3522 2298 c-14 -14 -16 -50 -2 -64 5 -5 12 -69 16 -142 6 -119 5
-134 -11 -152 -27 -30 -7 -70 34 -70 42 0 53 24 42 96 l-9 59 -1 -60 c-1 -68
-13 -97 -32 -78 -6 6 -8 17 -4 24 9 14 8 286 -1 335 -7 36 5 45 26 19 7 -8 10
-25 6 -40 -4 -14 -3 -56 1 -93 l7 -67 7 55 c14 110 11 129 -20 161 -33 32 -41
35 -59 17z"/>
<path d="M3782 1423 c-1 -410 1 -623 8 -623 6 0 10 -7 10 -15 0 -8 -7 -15 -15
-15 -8 0 -15 6 -15 14 0 8 -8 13 -17 11 -10 -2 -30 -4 -45 -4 -15 -1 -33 -8
-42 -16 -17 -18 -40 -20 -30 -3 5 8 2 9 -10 5 -10 -4 -30 -7 -44 -8 -26 -1
-25 -1 6 -10 40 -12 42 -23 2 -14 -22 5 -30 3 -30 -7 0 -8 -3 -9 -8 -3 -4 6
-35 10 -69 10 -33 0 -57 -3 -51 -6 12 -8 -27 -19 -67 -19 -24 0 -27 2 -15 11
12 8 11 9 -5 5 -11 -2 -45 -7 -75 -11 -30 -3 -75 -10 -100 -15 -25 -5 -67 -12
-94 -15 -28 -4 -44 -10 -37 -14 6 -4 -13 -6 -44 -3 -36 3 -55 1 -55 -7 0 -6
-11 -8 -30 -5 -16 4 -30 3 -30 -2 0 -5 -21 -9 -47 -10 -56 -1 -177 -18 -283
-38 -41 -8 -133 -23 -203 -32 -77 -11 -123 -21 -115 -26 8 -5 1 -6 -17 -2 -16
3 -77 -2 -135 -11 -189 -30 -274 -43 -335 -53 -56 -10 -61 -9 -79 11 -19 22
-19 21 -13 -56 3 -44 8 -81 11 -84 10 -10 96 8 111 23 10 10 31 15 63 13 26
-1 54 1 62 5 14 6 71 12 127 15 14 1 25 11 31 29 7 17 11 21 11 10 1 -21 50
-25 69 -6 6 6 42 12 79 13 98 3 234 24 261 41 13 8 31 12 42 9 10 -3 47 -1 82
4 35 6 92 13 128 16 99 7 204 23 263 39 28 8 94 18 145 21 50 4 95 11 98 16 3
5 25 9 49 9 24 0 47 5 50 11 4 6 13 8 20 5 7 -2 30 0 51 4 22 5 57 10 78 12
21 1 40 8 43 14 3 8 23 11 58 9 36 -2 53 1 52 8 -1 8 18 10 58 9 33 -2 87 4
120 12 32 9 73 16 91 16 17 0 37 7 44 15 10 11 36 15 114 15 55 1 121 5 146
11 52 12 205 37 270 44 25 3 78 10 117 16 40 6 77 8 82 5 5 -4 12 -2 16 4 3 5
17 10 30 10 13 0 26 6 28 13 4 9 8 8 16 -3 9 -12 13 -12 19 -2 5 8 33 15 63
16 53 4 183 34 206 49 6 4 13 1 16 -5 3 -10 9 -10 26 0 12 7 31 10 41 7 10 -3
21 -1 25 4 3 6 24 8 49 5 27 -4 46 -2 50 5 4 6 29 11 56 11 27 0 51 4 55 9 3
5 19 12 36 16 29 6 29 8 14 25 -13 14 -13 19 -3 22 9 3 5 9 -10 17 -20 10 -22
9 -22 -10 0 -20 -1 -21 -17 -7 -17 15 -32 16 -124 5 -27 -3 -82 -37 -61 -37
10 0 10 -4 -2 -15 -18 -18 -27 -19 -24 -3 4 19 -39 21 -131 7 -63 -9 -87 -10
-102 -1 -10 6 -21 8 -24 3 -3 -5 0 -11 7 -13 6 -2 -13 -4 -43 -3 -59 2 -127
-6 -288 -33 -82 -13 -98 -18 -75 -24 16 -3 -6 -4 -48 -1 -59 4 -78 3 -78 -7 0
-7 -7 -10 -15 -6 -8 3 -65 -3 -127 -13 -62 -11 -155 -25 -205 -32 -51 -7 -93
-16 -93 -20 0 -4 -15 -8 -32 -8 -18 0 -51 -2 -73 -3 l-40 -3 -5 620 -5 620 -3
-622z"/>
</g>
</svg>
